<svg width="24" height="24" viewBox="0 0 24 24" fill="none" xmlns="http://www.w3.org/2000/svg">
<path d="M12 2.25C10.0716 2.25 8.18657 2.82183 6.58319 3.89317C4.97982 4.96451 3.73013 6.48726 2.99218 8.26884C2.25422 10.0504 2.06114 12.0108 2.43735 13.9021C2.81355 15.7934 3.74215 17.5307 5.10571 18.8943C6.46928 20.2579 8.20656 21.1865 10.0979 21.5627C11.9892 21.9389 13.9496 21.7458 15.7312 21.0078C17.5127 20.2699 19.0355 19.0202 20.1068 17.4168C21.1782 15.8134 21.75 13.9284 21.75 12C21.7473 9.41498 20.7192 6.93661 18.8913 5.10872C17.0634 3.28084 14.585 2.25273 12 2.25ZM12.75 20.2153V17.25C12.75 17.0511 12.671 16.8603 12.5303 16.7197C12.3897 16.579 12.1989 16.5 12 16.5C11.8011 16.5 11.6103 16.579 11.4697 16.7197C11.329 16.8603 11.25 17.0511 11.25 17.25V20.2153C9.3301 20.0376 7.53283 19.1939 6.16945 17.8306C4.80606 16.4672 3.96244 14.6699 3.78469 12.75H6.75C6.94892 12.75 7.13968 12.671 7.28033 12.5303C7.42099 12.3897 7.5 12.1989 7.5 12C7.5 11.8011 7.42099 11.6103 7.28033 11.4697C7.13968 11.329 6.94892 11.25 6.75 11.25H3.78469C3.96244 9.3301 4.80606 7.53282 6.16945 6.16944C7.53283 4.80606 9.3301 3.96244 11.25 3.78469V6.75C11.25 6.94891 11.329 7.13968 11.4697 7.28033C11.6103 7.42098 11.8011 7.5 12 7.5C12.1989 7.5 12.3897 7.42098 12.5303 7.28033C12.671 7.13968 12.75 6.94891 12.75 6.75V3.78469C14.6699 3.96244 16.4672 4.80606 17.8306 6.16944C19.1939 7.53282 20.0376 9.3301 20.2153 11.25H17.25C17.0511 11.25 16.8603 11.329 16.7197 11.4697C16.579 11.6103 16.5 11.8011 16.5 12C16.5 12.1989 16.579 12.3897 16.7197 12.5303C16.8603 12.671 17.0511 12.75 17.25 12.75H20.2153C20.0376 14.6699 19.1939 16.4672 17.8306 17.8306C16.4672 19.1939 14.6699 20.0376 12.75 20.2153Z" fill="#60646C"/>
</svg>
