<svg width="24" height="24" viewBox="0 0 24 24" fill="none" xmlns="http://www.w3.org/2000/svg">
<path d="M12.25 14.5H10.75C10.5511 14.5 10.3603 14.579 10.2197 14.7197C10.079 14.8603 10 15.0511 10 15.25V20.5C10 20.6989 10.079 20.8897 10.2197 21.0303C10.3603 21.171 10.5511 21.25 10.75 21.25C10.9489 21.25 11.1397 21.171 11.2803 21.0303C11.421 20.8897 11.5 20.6989 11.5 20.5V19.75H12.25C12.9462 19.75 13.6139 19.4734 14.1062 18.9812C14.5984 18.4889 14.875 17.8212 14.875 17.125C14.875 16.4288 14.5984 15.7611 14.1062 15.2688C13.6139 14.7766 12.9462 14.5 12.25 14.5ZM12.25 18.25H11.5V16H12.25C12.5484 16 12.8345 16.1185 13.0455 16.3295C13.2565 16.5405 13.375 16.8266 13.375 17.125C13.375 17.4234 13.2565 17.7095 13.0455 17.9205C12.8345 18.1315 12.5484 18.25 12.25 18.25ZM21.25 18.25V19.8316C21.25 20.0247 21.1754 20.2104 21.0419 20.35C20.7807 20.6311 20.4649 20.8559 20.1138 21.0107C19.7627 21.1655 19.3837 21.2469 19 21.25C17.3453 21.25 16 19.7359 16 17.875C16 16.0141 17.3453 14.5 19 14.5C19.5514 14.5017 20.0897 14.6689 20.545 14.98C20.7098 15.0919 20.8235 15.2647 20.8609 15.4604C20.8984 15.656 20.8566 15.8586 20.7447 16.0234C20.6328 16.1883 20.46 16.3019 20.2643 16.3394C20.0686 16.3768 19.8661 16.335 19.7013 16.2231C19.4955 16.0794 19.251 16.0016 19 16C18.1731 16 17.5 16.8438 17.5 17.875C17.5 18.9062 18.1731 19.75 19 19.75C19.2706 19.7469 19.5332 19.6579 19.75 19.4959V19C19.5511 19 19.3603 18.921 19.2197 18.7803C19.079 18.6397 19 18.4489 19 18.25C19 18.0511 19.079 17.8603 19.2197 17.7197C19.3603 17.579 19.5511 17.5 19.75 17.5H20.5C20.6989 17.5 20.8897 17.579 21.0303 17.7197C21.171 17.8603 21.25 18.0511 21.25 18.25ZM8.5 15.25V18.8125C8.5 19.459 8.24319 20.079 7.78607 20.5361C7.32895 20.9932 6.70897 21.25 6.0625 21.25C5.41603 21.25 4.79605 20.9932 4.33893 20.5361C3.88181 20.079 3.625 19.459 3.625 18.8125C3.625 18.6136 3.70402 18.4228 3.84467 18.2822C3.98532 18.1415 4.17609 18.0625 4.375 18.0625C4.57391 18.0625 4.76468 18.1415 4.90533 18.2822C5.04598 18.4228 5.125 18.6136 5.125 18.8125C5.125 19.0611 5.22377 19.2996 5.39959 19.4754C5.5754 19.6512 5.81386 19.75 6.0625 19.75C6.31114 19.75 6.5496 19.6512 6.72541 19.4754C6.90123 19.2996 7 19.0611 7 18.8125V15.25C7 15.0511 7.07902 14.8603 7.21967 14.7197C7.36032 14.579 7.55109 14.5 7.75 14.5C7.94891 14.5 8.13968 14.579 8.28033 14.7197C8.42098 14.8603 8.5 15.0511 8.5 15.25ZM21.0306 8.71938L15.7806 3.46938C15.7109 3.39975 15.6282 3.34454 15.5371 3.3069C15.4461 3.26926 15.3485 3.24992 15.25 3.25H6.25C5.85218 3.25 5.47064 3.40804 5.18934 3.68934C4.90804 3.97064 4.75 4.35218 4.75 4.75V11.5C4.75 11.6989 4.82902 11.8897 4.96967 12.0303C5.11032 12.171 5.30109 12.25 5.5 12.25C5.69891 12.25 5.88968 12.171 6.03033 12.0303C6.17098 11.8897 6.25 11.6989 6.25 11.5V4.75H14.5V9.25C14.5 9.44891 14.579 9.63968 14.7197 9.78033C14.8603 9.92098 15.0511 10 15.25 10H19.75V11.5C19.75 11.6989 19.829 11.8897 19.9697 12.0303C20.1103 12.171 20.3011 12.25 20.5 12.25C20.6989 12.25 20.8897 12.171 21.0303 12.0303C21.171 11.8897 21.25 11.6989 21.25 11.5V9.25C21.2501 9.15148 21.2307 9.05391 21.1931 8.96286C21.1555 8.87182 21.1003 8.78908 21.0306 8.71938ZM16 8.5V5.81031L18.6897 8.5H16Z" fill="#60646C"/>
</svg>
