<svg width="24" height="24" viewBox="0 0 24 24" fill="none" xmlns="http://www.w3.org/2000/svg">
<path d="M18.6509 18.9151C18.7206 18.9848 18.7759 19.0675 18.8136 19.1586C18.8513 19.2496 18.8707 19.3472 18.8707 19.4457C18.8707 19.5443 18.8513 19.6419 18.8136 19.7329C18.7759 19.8239 18.7206 19.9067 18.6509 19.9764C18.5812 20.046 18.4985 20.1013 18.4075 20.139C18.3164 20.1767 18.2188 20.1961 18.1203 20.1961C18.0217 20.1961 17.9242 20.1767 17.8331 20.139C17.7421 20.1013 17.6593 20.046 17.5897 19.9764L11.3703 13.756L5.15092 19.9764C5.01018 20.1171 4.81931 20.1961 4.62029 20.1961C4.42127 20.1961 4.2304 20.1171 4.08967 19.9764C3.94893 19.8356 3.86987 19.6448 3.86987 19.4457C3.86987 19.2467 3.94893 19.0558 4.08967 18.9151L10.31 12.6957L4.08967 6.47635C3.94893 6.33562 3.86987 6.14475 3.86987 5.94573C3.86987 5.74671 3.94893 5.55584 4.08967 5.4151C4.2304 5.27437 4.42127 5.19531 4.62029 5.19531C4.81931 5.19531 5.01018 5.27437 5.15092 5.4151L11.3703 11.6354L17.5897 5.4151C17.7304 5.27437 17.9213 5.19531 18.1203 5.19531C18.3193 5.19531 18.5102 5.27437 18.6509 5.4151C18.7916 5.55584 18.8707 5.74671 18.8707 5.94573C18.8707 6.14475 18.7916 6.33562 18.6509 6.47635L12.4306 12.6957L18.6509 18.9151Z" fill="#60646C"/>
</svg>
