<svg width="24" height="24" viewBox="0 0 24 24" fill="none" xmlns="http://www.w3.org/2000/svg">
<path d="M21.6486 19.875C20.2208 17.4065 18.0205 15.6365 15.4527 14.7975C16.7229 14.0414 17.7097 12.8892 18.2617 11.5179C18.8136 10.1467 18.9002 8.63211 18.5081 7.20688C18.116 5.78165 17.2668 4.52454 16.0911 3.6286C14.9154 2.73266 13.4781 2.24744 11.9999 2.24744C10.5217 2.24744 9.08438 2.73266 7.90866 3.6286C6.73294 4.52454 5.88382 5.78165 5.49171 7.20688C5.09959 8.63211 5.18616 10.1467 5.73813 11.5179C6.29009 12.8892 7.27692 14.0414 8.54708 14.7975C5.97926 15.6356 3.77895 17.4056 2.35114 19.875C2.29878 19.9604 2.26405 20.0554 2.249 20.1544C2.23394 20.2534 2.23888 20.3544 2.2635 20.4515C2.28813 20.5486 2.33195 20.6397 2.39238 20.7196C2.45281 20.7995 2.52862 20.8664 2.61535 20.9165C2.70207 20.9666 2.79795 20.9988 2.89733 21.0113C2.99671 21.0237 3.09757 21.0161 3.19397 20.989C3.29037 20.9618 3.38034 20.9156 3.45859 20.8531C3.53684 20.7906 3.60178 20.713 3.64958 20.625C5.41583 17.5725 8.5377 15.75 11.9999 15.75C15.4621 15.75 18.584 17.5725 20.3502 20.625C20.398 20.713 20.4629 20.7906 20.5412 20.8531C20.6194 20.9156 20.7094 20.9618 20.8058 20.989C20.9022 21.0161 21.0031 21.0237 21.1024 21.0113C21.2018 20.9988 21.2977 20.9666 21.3844 20.9165C21.4712 20.8664 21.547 20.7995 21.6074 20.7196C21.6678 20.6397 21.7116 20.5486 21.7363 20.4515C21.7609 20.3544 21.7658 20.2534 21.7508 20.1544C21.7357 20.0554 21.701 19.9604 21.6486 19.875ZM6.74989 8.99999C6.74989 7.96164 7.05779 6.9466 7.63467 6.08324C8.21155 5.21989 9.03149 4.54698 9.9908 4.14962C10.9501 3.75226 12.0057 3.64829 13.0241 3.85086C14.0425 4.05344 14.978 4.55345 15.7122 5.28768C16.4464 6.0219 16.9464 6.95736 17.149 7.97576C17.3516 8.99416 17.2476 10.0498 16.8503 11.0091C16.4529 11.9684 15.78 12.7883 14.9166 13.3652C14.0533 13.9421 13.0382 14.25 11.9999 14.25C10.608 14.2485 9.27347 13.6949 8.28922 12.7107C7.30498 11.7264 6.75138 10.3919 6.74989 8.99999Z" fill="#60646C"/>
</svg>
