<svg width="24" height="24" viewBox="0 0 24 24" fill="none" xmlns="http://www.w3.org/2000/svg">
<path d="M15.3749 7.5C15.8941 7.5 16.4016 7.34605 16.8333 7.05761C17.265 6.76917 17.6014 6.3592 17.8001 5.87955C17.9988 5.39989 18.0508 4.87209 17.9495 4.36289C17.8482 3.85369 17.5982 3.38596 17.2311 3.01885C16.864 2.65173 16.3963 2.40173 15.8871 2.30044C15.3779 2.19915 14.8501 2.25114 14.3704 2.44982C13.8907 2.6485 13.4808 2.98495 13.1923 3.41663C12.9039 3.84831 12.7499 4.35583 12.7499 4.875C12.7499 5.57119 13.0265 6.23887 13.5188 6.73116C14.0111 7.22344 14.6788 7.5 15.3749 7.5ZM15.3749 3.75C15.5974 3.75 15.815 3.81598 16 3.9396C16.185 4.06321 16.3292 4.23892 16.4143 4.44448C16.4995 4.65005 16.5217 4.87625 16.4783 5.09448C16.4349 5.31271 16.3278 5.51316 16.1704 5.6705C16.0131 5.82783 15.8126 5.93498 15.5944 5.97838C15.3762 6.02179 15.15 5.99951 14.9444 5.91437C14.7389 5.82922 14.5632 5.68502 14.4395 5.50002C14.3159 5.31501 14.2499 5.09751 14.2499 4.875C14.2499 4.57663 14.3685 4.29048 14.5794 4.07951C14.7904 3.86853 15.0766 3.75 15.3749 3.75ZM23.8949 18.3675L18.7799 9.735C18.648 9.51012 18.4593 9.32385 18.2328 9.19486C18.0062 9.06586 17.7497 8.99867 17.489 9C17.2284 8.99864 16.972 9.06583 16.7456 9.19484C16.5192 9.32385 16.3307 9.51013 16.199 9.735L13.7465 13.875L9.54276 6.74063C9.41029 6.5155 9.22133 6.32886 8.99458 6.19919C8.76783 6.06952 8.51115 6.00131 8.24994 6.00131C7.98873 6.00131 7.73205 6.06952 7.5053 6.19919C7.27855 6.32886 7.0896 6.5155 6.95713 6.74063L0.104005 18.3694C0.0369245 18.4833 0.00113451 18.6129 0.00026054 18.745C-0.000613433 18.8772 0.0334596 19.0073 0.0990286 19.122C0.164597 19.2368 0.259333 19.3322 0.37364 19.3986C0.487947 19.465 0.617764 19.4999 0.749943 19.5H23.2499C23.3823 19.5 23.5123 19.4649 23.6268 19.3984C23.7412 19.3318 23.836 19.2362 23.9015 19.1212C23.967 19.0061 24.0009 18.8758 23.9998 18.7435C23.9986 18.6111 23.9625 18.4814 23.8949 18.3675ZM8.24994 7.5L10.4596 11.25H6.04026L8.24994 7.5ZM2.06244 18L5.15619 12.75H11.3437L13.1006 15.7313L14.4374 18H2.06244ZM16.1784 18L14.6165 15.3488L17.489 10.5L21.9374 18H16.1784Z" fill="#60646C"/>
</svg>
