<svg width="24" height="24" viewBox="0 0 24 24" fill="none" xmlns="http://www.w3.org/2000/svg">
<path d="M16.2363 12.4012C16.2363 12.6002 16.1573 12.7909 16.0167 12.9316C15.876 13.0722 15.6852 13.1512 15.4863 13.1512H7.98633C7.78742 13.1512 7.59665 13.0722 7.456 12.9316C7.31535 12.7909 7.23633 12.6002 7.23633 12.4012C7.23633 12.2023 7.31535 12.0116 7.456 11.8709C7.59665 11.7303 7.78742 11.6512 7.98633 11.6512H15.4863C15.6852 11.6512 15.876 11.7303 16.0167 11.8709C16.1573 12.0116 16.2363 12.2023 16.2363 12.4012ZM21.4863 12.4012C21.4863 14.3296 20.9145 16.2147 19.8432 17.8181C18.7718 19.4214 17.2491 20.6711 15.4675 21.4091C13.6859 22.147 11.7255 22.3401 9.8342 21.9639C7.94289 21.5877 6.2056 20.6591 4.84204 19.2955C3.47848 17.932 2.54988 16.1947 2.17368 14.3034C1.79747 12.4121 1.99055 10.4517 2.72851 8.67008C3.46646 6.8885 4.71614 5.36576 6.31952 4.29442C7.9229 3.22307 9.80796 2.65125 11.7363 2.65125C14.3214 2.65397 16.7997 3.68208 18.6276 5.50997C20.4555 7.33786 21.4836 9.81622 21.4863 12.4012ZM19.9863 12.4012C19.9863 10.7695 19.5025 9.1745 18.596 7.81779C17.6894 6.46109 16.401 5.40366 14.8935 4.77924C13.386 4.15482 11.7272 3.99144 10.1268 4.30977C8.52649 4.62809 7.05648 5.41383 5.9027 6.56761C4.74892 7.7214 3.96318 9.19141 3.64485 10.7917C3.32653 12.3921 3.4899 14.0509 4.11433 15.5584C4.73875 17.0659 5.79617 18.3543 7.15288 19.2609C8.50958 20.1674 10.1046 20.6512 11.7363 20.6512C13.9236 20.6488 16.0206 19.7788 17.5672 18.2321C19.1139 16.6855 19.9839 14.5885 19.9863 12.4012Z" fill="#60646C"/>
</svg>
