<svg width="24" height="24" viewBox="0 0 24 24" fill="none" xmlns="http://www.w3.org/2000/svg">
<path d="M16.3125 4.4766C15.1545 3.13919 13.8511 1.9349 12.4266 0.885971C12.3005 0.797632 12.1502 0.750244 11.9963 0.750244C11.8423 0.750244 11.692 0.797632 11.5659 0.885971C10.144 1.93533 8.84317 3.13961 7.6875 4.4766C5.11031 7.43628 3.75 10.5563 3.75 13.5C3.75 15.6881 4.61919 17.7865 6.16637 19.3337C7.71354 20.8808 9.81196 21.75 12 21.75C14.188 21.75 16.2865 20.8808 17.8336 19.3337C19.3808 17.7865 20.25 15.6881 20.25 13.5C20.25 10.5563 18.8897 7.43628 16.3125 4.4766ZM17.6091 17.25H6.39094C6.07955 16.7832 5.82761 16.2793 5.64094 15.75H18.3628C18.175 16.2795 17.9218 16.7833 17.6091 17.25ZM18.75 13.5C18.7498 13.7506 18.7354 14.0011 18.7069 14.25H5.29312C5.26456 14.0011 5.25016 13.7506 5.25 13.5C5.25 13.25 5.26125 13 5.28375 12.75H18.7162C18.7387 13 18.75 13.25 18.75 13.5ZM12 2.43753C13.3275 3.47816 17.3306 6.91316 18.4537 11.25H5.54625C6.66937 6.91503 10.6725 3.48003 12 2.43753ZM7.76344 18.75H16.2366C15.0378 19.7205 13.5423 20.2499 12 20.2499C10.4577 20.2499 8.96216 19.7205 7.76344 18.75Z" fill="#60646C"/>
</svg>
