<svg width="24" height="24" viewBox="0 0 24 24" fill="none" xmlns="http://www.w3.org/2000/svg">
<path d="M8.41438 19.4005C8.38515 19.6874 8.29272 19.9642 8.14375 20.2111C7.99478 20.4579 7.79297 20.6688 7.55281 20.8283C7.06625 21.1527 6.4625 21.2465 5.91313 21.2465C5.43403 21.2434 4.9572 21.1804 4.49375 21.059C4.30445 21.0035 4.14462 20.8757 4.04886 20.7033C3.9531 20.5308 3.92914 20.3276 3.98215 20.1376C4.03517 19.9476 4.1609 19.7862 4.33211 19.6882C4.50332 19.5903 4.70622 19.5637 4.89688 19.6143C5.3075 19.7268 6.29844 19.8674 6.72969 19.5805C6.81219 19.5252 6.90125 19.438 6.93031 19.2121C6.96313 18.9618 6.86375 18.8277 5.73219 18.5005C4.85563 18.2474 3.38844 17.8227 3.57594 16.334C3.60512 16.0527 3.69584 15.7814 3.84166 15.5392C3.98748 15.2969 4.18482 15.0898 4.41969 14.9324C5.52969 14.1824 7.29969 14.6221 7.4975 14.6736C7.68995 14.7242 7.85441 14.8492 7.95472 15.0211C8.05502 15.1929 8.08294 15.3976 8.03235 15.5901C7.98175 15.7825 7.85677 15.947 7.68491 16.0473C7.51305 16.1476 7.30839 16.1755 7.11594 16.1249C6.69594 16.0152 5.68813 15.8849 5.25688 16.1774C5.20035 16.2155 5.15381 16.2667 5.12118 16.3266C5.08855 16.3864 5.07078 16.4533 5.06938 16.5215C5.05906 16.6058 5.05625 16.6236 5.17438 16.6996C5.39094 16.8393 5.77813 16.9508 6.15406 17.0596C7.07188 17.3249 8.62438 17.7777 8.41438 19.4005ZM20.4313 9.24646V11.4965C20.4313 11.6954 20.3522 11.8861 20.2116 12.0268C20.0709 12.1674 19.8802 12.2465 19.6813 12.2465C19.4823 12.2465 19.2916 12.1674 19.1509 12.0268C19.0103 11.8861 18.9313 11.6954 18.9313 11.4965V9.99646H14.4313C14.2323 9.99646 14.0416 9.91744 13.9009 9.77679C13.7603 9.63614 13.6813 9.44537 13.6813 9.24646V4.74646H5.43125V11.4965C5.43125 11.6954 5.35223 11.8861 5.21158 12.0268C5.07093 12.1674 4.88016 12.2465 4.68125 12.2465C4.48234 12.2465 4.29157 12.1674 4.15092 12.0268C4.01027 11.8861 3.93125 11.6954 3.93125 11.4965V4.74646C3.93125 4.34864 4.08929 3.9671 4.37059 3.6858C4.6519 3.4045 5.03343 3.24646 5.43125 3.24646H14.4313C14.6299 3.24655 14.8204 3.32545 14.9609 3.46583L20.2109 8.71583C20.2807 8.78546 20.3361 8.86816 20.3739 8.95921C20.4117 9.05026 20.4312 9.14787 20.4313 9.24646ZM15.1813 8.49646H17.8709L15.1813 5.80677V8.49646ZM13.9344 14.5405C13.8416 14.5073 13.7432 14.4927 13.6448 14.4975C13.5464 14.5024 13.4499 14.5265 13.3608 14.5687C13.2718 14.6108 13.1919 14.6701 13.1257 14.7431C13.0596 14.8161 13.0085 14.9015 12.9753 14.9943L11.8063 18.2661L10.6372 14.9943C10.6064 14.8986 10.5567 14.8102 10.491 14.7341C10.4253 14.6581 10.3451 14.596 10.2549 14.5516C10.1648 14.5072 10.0667 14.4813 9.96639 14.4755C9.86608 14.4698 9.76564 14.4842 9.67102 14.518C9.57641 14.5518 9.48955 14.6043 9.4156 14.6723C9.34165 14.7403 9.28212 14.8225 9.24055 14.914C9.19898 15.0054 9.17621 15.1043 9.17359 15.2048C9.17097 15.3052 9.18856 15.4051 9.22531 15.4986L11.1003 20.7486C11.1523 20.8944 11.2481 21.0205 11.3746 21.1096C11.501 21.1988 11.652 21.2467 11.8067 21.2467C11.9615 21.2467 12.1124 21.1988 12.2389 21.1096C12.3653 21.0205 12.4611 20.8944 12.5131 20.7486L14.3881 15.4986C14.4549 15.3114 14.4446 15.1053 14.3595 14.9257C14.2745 14.746 14.1215 14.6075 13.9344 14.5405ZM19.6813 17.4965H18.9313C18.7323 17.4965 18.5416 17.5755 18.4009 17.7161C18.2603 17.8568 18.1813 18.0475 18.1813 18.2465C18.1813 18.4454 18.2603 18.6361 18.4009 18.7768C18.5416 18.9174 18.7323 18.9965 18.9313 18.9965V19.4924C18.7152 19.6558 18.4521 19.745 18.1813 19.7465C17.3544 19.7465 16.6813 18.9027 16.6813 17.8715C16.6813 16.8402 17.3544 15.9965 18.1813 15.9965C18.4338 15.9975 18.68 16.0753 18.8872 16.2196C19.0521 16.327 19.2526 16.3652 19.4454 16.3261C19.6382 16.2871 19.808 16.1738 19.9181 16.0107C20.0282 15.8476 20.0698 15.6478 20.0339 15.4543C19.998 15.2608 19.8875 15.0892 19.7263 14.9765C19.2709 14.6654 18.7327 14.4982 18.1813 14.4965C16.5275 14.4965 15.1813 16.0105 15.1813 17.8715C15.1813 19.7324 16.5275 21.2465 18.1813 21.2465C18.5649 21.2434 18.944 21.1619 19.2951 21.0072C19.6462 20.8524 19.962 20.6276 20.2231 20.3465C20.3567 20.2069 20.4312 20.0212 20.4313 19.828V18.2465C20.4313 18.0475 20.3522 17.8568 20.2116 17.7161C20.0709 17.5755 19.8802 17.4965 19.6813 17.4965Z" fill="#60646C"/>
</svg>
