<svg width="24" height="24" viewBox="0 0 24 24" fill="none" xmlns="http://www.w3.org/2000/svg">
<path d="M16.5 12.75H18.7069C18.5347 14.2705 17.8518 15.6877 16.7697 16.7697C15.6877 17.8518 14.2705 18.5347 12.75 18.7069V16.5C12.75 16.3011 12.671 16.1103 12.5303 15.9697C12.3897 15.829 12.1989 15.75 12 15.75C11.8011 15.75 11.6103 15.829 11.4697 15.9697C11.329 16.1103 11.25 16.3011 11.25 16.5V18.7069C9.72947 18.5347 8.31232 17.8518 7.23026 16.7697C6.14821 15.6877 5.46528 14.2705 5.29313 12.75H7.5C7.69892 12.75 7.88968 12.671 8.03033 12.5303C8.17099 12.3897 8.25 12.1989 8.25 12C8.25 11.8011 8.17099 11.6103 8.03033 11.4697C7.88968 11.329 7.69892 11.25 7.5 11.25H5.29313C5.46528 9.72946 6.14821 8.31231 7.23026 7.23026C8.31232 6.14821 9.72947 5.46528 11.25 5.29312V7.5C11.25 7.69891 11.329 7.88968 11.4697 8.03033C11.6103 8.17098 11.8011 8.25 12 8.25C12.1989 8.25 12.3897 8.17098 12.5303 8.03033C12.671 7.88968 12.75 7.69891 12.75 7.5V5.29312C14.2705 5.46528 15.6877 6.14821 16.7697 7.23026C17.8518 8.31231 18.5347 9.72946 18.7069 11.25H16.5C16.3011 11.25 16.1103 11.329 15.9697 11.4697C15.829 11.6103 15.75 11.8011 15.75 12C15.75 12.1989 15.829 12.3897 15.9697 12.5303C16.1103 12.671 16.3011 12.75 16.5 12.75ZM21.75 12C21.75 13.9284 21.1782 15.8134 20.1068 17.4168C19.0355 19.0202 17.5127 20.2699 15.7312 21.0078C13.9496 21.7458 11.9892 21.9389 10.0979 21.5627C8.20656 21.1865 6.46928 20.2579 5.10571 18.8943C3.74215 17.5307 2.81355 15.7934 2.43735 13.9021C2.06114 12.0108 2.25422 10.0504 2.99218 8.26884C3.73013 6.48726 4.97982 4.96451 6.58319 3.89317C8.18657 2.82183 10.0716 2.25 12 2.25C14.585 2.25273 17.0634 3.28084 18.8913 5.10872C20.7192 6.93661 21.7473 9.41498 21.75 12ZM20.25 12C20.25 10.3683 19.7661 8.77325 18.8596 7.41655C17.9531 6.05984 16.6646 5.00242 15.1571 4.37799C13.6497 3.75357 11.9909 3.59019 10.3905 3.90852C8.79017 4.22685 7.32016 5.01259 6.16637 6.16637C5.01259 7.32015 4.22685 8.79016 3.90853 10.3905C3.5902 11.9908 3.75358 13.6496 4.378 15.1571C5.00242 16.6646 6.05984 17.9531 7.41655 18.8596C8.77326 19.7661 10.3683 20.25 12 20.25C14.1873 20.2475 16.2843 19.3775 17.8309 17.8309C19.3775 16.2843 20.2475 14.1873 20.25 12Z" fill="#3F7FC0"/>
</svg>
