<svg width="24" height="24" viewBox="0 0 24 24" fill="none" xmlns="http://www.w3.org/2000/svg">
<path d="M15.8459 19.3998C15.9156 19.4695 15.9709 19.5523 16.0086 19.6433C16.0463 19.7343 16.0657 19.8319 16.0657 19.9305C16.0657 20.029 16.0463 20.1266 16.0086 20.2176C15.9709 20.3087 15.9156 20.3914 15.8459 20.4611C15.7762 20.5308 15.6935 20.5861 15.6025 20.6238C15.5114 20.6615 15.4138 20.6809 15.3153 20.6809C15.2167 20.6809 15.1192 20.6615 15.0281 20.6238C14.9371 20.5861 14.8543 20.5308 14.7847 20.4611L7.28466 12.9611C7.21493 12.8914 7.15961 12.8087 7.12187 12.7177C7.08412 12.6266 7.0647 12.529 7.0647 12.4305C7.0647 12.3319 7.08412 12.2343 7.12187 12.1433C7.15961 12.0522 7.21493 11.9695 7.28466 11.8998L14.7847 4.39985C14.9254 4.25912 15.1163 4.18005 15.3153 4.18005C15.5143 4.18005 15.7052 4.25912 15.8459 4.39985C15.9866 4.54058 16.0657 4.73145 16.0657 4.93047C16.0657 5.12949 15.9866 5.32037 15.8459 5.4611L8.8756 12.4305L15.8459 19.3998Z" fill="#60646C"/>
</svg>
