<svg width="24" height="24" viewBox="0 0 24 24" fill="none" xmlns="http://www.w3.org/2000/svg">
<path d="M21.5306 20.4694L16.8375 15.7762C18.2004 14.1416 18.8807 12.0445 18.7368 9.92113C18.5928 7.79774 17.6358 5.81159 16.0648 4.37586C14.4937 2.94013 12.4296 2.16536 10.3019 2.21275C8.17416 2.26013 6.1466 3.12601 4.64103 4.63025C3.13546 6.13449 2.26779 8.16128 2.21853 10.289C2.16926 12.4167 2.9422 14.4814 4.37654 16.0537C5.81088 17.626 7.79619 18.5848 9.91945 18.7306C12.0427 18.8764 14.1404 18.198 15.7762 16.8366L20.4694 21.5306C20.5391 21.6003 20.6218 21.6556 20.7128 21.6933C20.8039 21.731 20.9015 21.7504 21 21.7504C21.0985 21.7504 21.1961 21.731 21.2872 21.6933C21.3782 21.6556 21.4609 21.6003 21.5306 21.5306C21.6003 21.4609 21.6556 21.3782 21.6933 21.2872C21.731 21.1961 21.7504 21.0985 21.7504 21C21.7504 20.9015 21.731 20.8039 21.6933 20.7128C21.6556 20.6218 21.6003 20.5391 21.5306 20.4694ZM13.5 11.25H11.25V13.5C11.25 13.6989 11.171 13.8897 11.0303 14.0303C10.8897 14.171 10.6989 14.25 10.5 14.25C10.3011 14.25 10.1103 14.171 9.96967 14.0303C9.82902 13.8897 9.75 13.6989 9.75 13.5V11.25H7.5C7.30109 11.25 7.11032 11.171 6.96967 11.0303C6.82902 10.8897 6.75 10.6989 6.75 10.5C6.75 10.3011 6.82902 10.1103 6.96967 9.96967C7.11032 9.82902 7.30109 9.75 7.5 9.75H9.75V7.5C9.75 7.30109 9.82902 7.11032 9.96967 6.96967C10.1103 6.82902 10.3011 6.75 10.5 6.75C10.6989 6.75 10.8897 6.82902 11.0303 6.96967C11.171 7.11032 11.25 7.30109 11.25 7.5V9.75H13.5C13.6989 9.75 13.8897 9.82902 14.0303 9.96967C14.171 10.1103 14.25 10.3011 14.25 10.5C14.25 10.6989 14.171 10.8897 14.0303 11.0303C13.8897 11.171 13.6989 11.25 13.5 11.25Z" fill="#3F7FC0"/>
</svg>
