<svg width="24" height="24" viewBox="0 0 24 24" fill="none" xmlns="http://www.w3.org/2000/svg">
<g clip-path="url(#clip0_3685_2925)">
<path d="M23.8949 18.3675L18.7799 9.735C18.648 9.51012 18.4593 9.32385 18.2327 9.19486C18.0062 9.06586 17.7497 8.99866 17.489 9C17.2284 8.99864 16.972 9.06583 16.7456 9.19484C16.5192 9.32385 16.3307 9.51013 16.199 9.735L14.7327 12.2091C14.6986 12.2668 14.6806 12.3327 14.6806 12.3998C14.6806 12.467 14.6986 12.5328 14.7327 12.5906L17.2452 16.8534C17.3407 17.0118 17.3753 17.1994 17.3427 17.3813C17.3101 17.5633 17.2125 17.7272 17.068 17.8425C16.9839 17.9079 16.8867 17.9545 16.7831 17.9794C16.6794 18.0043 16.5717 18.0068 16.467 17.9867C16.3623 17.9667 16.2631 17.9245 16.176 17.8631C16.0889 17.8017 16.0159 17.7225 15.9618 17.6306L9.54273 6.73875C9.41027 6.51362 9.22131 6.32699 8.99456 6.19731C8.76781 6.06764 8.51113 5.99943 8.24992 5.99943C7.98871 5.99943 7.73203 6.06764 7.50528 6.19731C7.27853 6.32699 7.08957 6.51362 6.95711 6.73875L0.10398 18.3694C0.0212921 18.5084 -0.0142551 18.6704 0.00263977 18.8312C0.0195347 18.992 0.0879666 19.1431 0.19773 19.2619C0.271642 19.3392 0.360812 19.4002 0.459582 19.4412C0.558352 19.4822 0.664565 19.5022 0.77148 19.5H23.2284C23.3348 19.5014 23.4404 19.4809 23.5387 19.4398C23.6369 19.3986 23.7256 19.3378 23.7993 19.2609C23.9096 19.1423 23.9785 18.9912 23.9957 18.8301C24.0129 18.6691 23.9776 18.5068 23.8949 18.3675ZM6.04023 11.25L8.24992 7.5L10.4596 11.25H6.04023ZM13.1249 4.875C13.1249 4.42999 13.2569 3.99498 13.5041 3.62497C13.7513 3.25496 14.1027 2.96657 14.5139 2.79627C14.925 2.62597 15.3774 2.58142 15.8139 2.66823C16.2503 2.75505 16.6512 2.96934 16.9659 3.28401C17.2806 3.59868 17.4949 3.99959 17.5817 4.43605C17.6685 4.87251 17.6239 5.32491 17.4536 5.73604C17.2833 6.14717 16.995 6.49857 16.625 6.74581C16.2549 6.99304 15.8199 7.125 15.3749 7.125C14.7782 7.125 14.2059 6.88795 13.7839 6.46599C13.362 6.04403 13.1249 5.47174 13.1249 4.875Z" fill="#3F7FC0"/>
</g>
<defs>
<clipPath id="clip0_3685_2925">
<rect width="24" height="24" fill="white"/>
</clipPath>
</defs>
</svg>
