<svg width="24" height="24" viewBox="0 0 24 24" fill="none" xmlns="http://www.w3.org/2000/svg">
<path d="M21.6507 15.375C21.7502 15.5477 21.777 15.7528 21.7252 15.9452C21.6734 16.1377 21.5473 16.3016 21.3746 16.4011C21.2891 16.4503 21.1947 16.4823 21.0969 16.495C20.9991 16.5078 20.8997 16.5012 20.8044 16.4756C20.612 16.4238 20.448 16.2977 20.3485 16.125L18.5673 13.0125C17.5326 13.7124 16.3912 14.2399 15.1876 14.5744L15.7379 17.8762C15.7541 17.9735 15.7511 18.0729 15.7288 18.1689C15.7066 18.2649 15.6657 18.3556 15.6084 18.4358C15.5511 18.516 15.4786 18.5841 15.395 18.6363C15.3113 18.6884 15.2182 18.7235 15.121 18.7397C15.081 18.7462 15.0406 18.7497 15.0001 18.75C14.8227 18.7497 14.6511 18.6866 14.5158 18.5717C14.3806 18.4569 14.2904 18.2978 14.2613 18.1228L13.7204 14.8809C12.5796 15.0397 11.4224 15.0397 10.2816 14.8809L9.74071 18.1228C9.7116 18.2982 9.62117 18.4575 9.48552 18.5723C9.34987 18.6872 9.17784 18.7502 9.00009 18.75C8.95863 18.7498 8.91725 18.7464 8.87634 18.7397C8.77912 18.7235 8.68603 18.6884 8.60241 18.6363C8.51878 18.5841 8.44625 18.516 8.38896 18.4358C8.33167 18.3556 8.29074 18.2649 8.26852 18.1689C8.2463 18.0729 8.24322 17.9735 8.25946 17.8762L8.81259 14.5744C7.60849 14.2391 6.46677 13.7107 5.43196 13.0097L3.65634 16.125C3.55688 16.2983 3.39265 16.425 3.19978 16.4772C3.00691 16.5294 2.8012 16.5029 2.6279 16.4034C2.4546 16.304 2.3279 16.1398 2.27568 15.9469C2.22347 15.754 2.25 15.5483 2.34946 15.375L4.22446 12.0938C3.56563 11.525 2.96 10.8974 2.41509 10.2188C2.30717 10.0853 2.24829 9.91883 2.24829 9.74719C2.24829 9.57554 2.30717 9.4091 2.41509 9.27563C4.17759 7.09875 7.2704 4.5 12.0001 4.5C16.7298 4.5 19.8226 7.09875 21.5832 9.28125C21.6911 9.41472 21.75 9.58117 21.75 9.75281C21.75 9.92446 21.6911 10.0909 21.5832 10.2244C21.0383 10.903 20.4327 11.5306 19.7738 12.0994L21.6507 15.375Z" fill="#3F7FC0"/>
</svg>
