<svg width="24" height="24" viewBox="0 0 24 24" fill="none" xmlns="http://www.w3.org/2000/svg">
<path d="M20.5432 15.203C20.5432 15.4019 20.4642 15.5927 20.3235 15.7333C20.1829 15.874 19.9921 15.953 19.7932 15.953H17.5432V17.453H19.0432C19.2421 17.453 19.4329 17.532 19.5735 17.6727C19.7142 17.8133 19.7932 18.0041 19.7932 18.203C19.7932 18.4019 19.7142 18.5927 19.5735 18.7333C19.4329 18.874 19.2421 18.953 19.0432 18.953H17.5432V20.453C17.5432 20.6519 17.4642 20.8427 17.3235 20.9833C17.1829 21.124 16.9921 21.203 16.7932 21.203C16.5943 21.203 16.4035 21.124 16.2629 20.9833C16.1222 20.8427 16.0432 20.6519 16.0432 20.453V15.203C16.0432 15.0041 16.1222 14.8133 16.2629 14.6727C16.4035 14.532 16.5943 14.453 16.7932 14.453H19.7932C19.9921 14.453 20.1829 14.532 20.3235 14.6727C20.4642 14.8133 20.5432 15.0041 20.5432 15.203ZM8.16821 17.078C8.16821 17.7742 7.89165 18.4419 7.39937 18.9342C6.90708 19.4264 6.23941 19.703 5.54321 19.703H4.79321V20.453C4.79321 20.6519 4.7142 20.8427 4.57354 20.9833C4.43289 21.124 4.24213 21.203 4.04321 21.203C3.8443 21.203 3.65354 21.124 3.51288 20.9833C3.37223 20.8427 3.29321 20.6519 3.29321 20.453V15.203C3.29321 15.0041 3.37223 14.8133 3.51288 14.6727C3.65354 14.532 3.8443 14.453 4.04321 14.453H5.54321C6.23941 14.453 6.90708 14.7296 7.39937 15.2218C7.89165 15.7141 8.16821 16.3818 8.16821 17.078ZM6.66821 17.078C6.66821 16.7796 6.54969 16.4935 6.33871 16.2825C6.12773 16.0715 5.84158 15.953 5.54321 15.953H4.79321V18.203H5.54321C5.84158 18.203 6.12773 18.0845 6.33871 17.8735C6.54969 17.6625 6.66821 17.3764 6.66821 17.078ZM14.9182 17.828C14.9182 18.7231 14.5626 19.5816 13.9297 20.2145C13.2968 20.8474 12.4383 21.203 11.5432 21.203H10.0432C9.8443 21.203 9.65354 21.124 9.51288 20.9833C9.37223 20.8427 9.29321 20.6519 9.29321 20.453V15.203C9.29321 15.0041 9.37223 14.8133 9.51288 14.6727C9.65354 14.532 9.8443 14.453 10.0432 14.453H11.5432C12.4383 14.453 13.2968 14.8086 13.9297 15.4415C14.5626 16.0745 14.9182 16.9329 14.9182 17.828ZM13.4182 17.828C13.4182 17.3307 13.2207 16.8538 12.869 16.5022C12.5174 16.1505 12.0405 15.953 11.5432 15.953H10.7932V19.703H11.5432C12.0405 19.703 12.5174 19.5055 12.869 19.1538C13.2207 18.8022 13.4182 18.3253 13.4182 17.828ZM3.29321 11.453V4.703C3.29321 4.30518 3.45125 3.92365 3.73255 3.64234C4.01386 3.36104 4.39539 3.203 4.79321 3.203H13.7932C13.8917 3.20293 13.9893 3.22226 14.0804 3.2599C14.1714 3.29754 14.2541 3.35275 14.3238 3.42238L19.5738 8.67238C19.6435 8.74208 19.6987 8.82482 19.7363 8.91587C19.774 9.00691 19.7933 9.10448 19.7932 9.203V11.453C19.7932 11.6519 19.7142 11.8427 19.5735 11.9833C19.4329 12.124 19.2421 12.203 19.0432 12.203C18.8443 12.203 18.6535 12.124 18.5129 11.9833C18.3722 11.8427 18.2932 11.6519 18.2932 11.453V9.953H13.7932C13.5943 9.953 13.4035 9.87399 13.2629 9.73333C13.1222 9.59268 13.0432 9.40192 13.0432 9.203V4.703H4.79321V11.453C4.79321 11.6519 4.7142 11.8427 4.57354 11.9833C4.43289 12.124 4.24213 12.203 4.04321 12.203C3.8443 12.203 3.65354 12.124 3.51288 11.9833C3.37223 11.8427 3.29321 11.6519 3.29321 11.453ZM14.5432 8.453H17.2329L14.5432 5.76332V8.453Z" fill="#60646C"/>
</svg>
