<svg width="24" height="24" viewBox="0 0 24 24" fill="none" xmlns="http://www.w3.org/2000/svg">
<path d="M20.5603 10.939L13.0603 3.43899C12.779 3.1579 12.3977 3 12 3C11.6024 3 11.221 3.1579 10.9397 3.43899L3.4397 10.939C3.29973 11.0779 3.18878 11.2433 3.1133 11.4255C3.03782 11.6077 2.99931 11.803 3.00001 12.0002V21.0002C3.00001 21.1992 3.07903 21.3899 3.21968 21.5306C3.36033 21.6712 3.5511 21.7502 3.75001 21.7502H9.75001C9.94892 21.7502 10.1397 21.6712 10.2803 21.5306C10.421 21.3899 10.5 21.1992 10.5 21.0002V15.7502H13.5V21.0002C13.5 21.1992 13.579 21.3899 13.7197 21.5306C13.8603 21.6712 14.0511 21.7502 14.25 21.7502H20.25C20.4489 21.7502 20.6397 21.6712 20.7803 21.5306C20.921 21.3899 21 21.1992 21 21.0002V12.0002C21.0007 11.803 20.9622 11.6077 20.8867 11.4255C20.8112 11.2433 20.7003 11.0779 20.5603 10.939ZM19.5 20.2502H15V15.0002C15 14.8013 14.921 14.6106 14.7803 14.4699C14.6397 14.3293 14.4489 14.2502 14.25 14.2502H9.75001C9.5511 14.2502 9.36033 14.3293 9.21968 14.4699C9.07903 14.6106 9.00001 14.8013 9.00001 15.0002V20.2502H4.50001V12.0002L12 4.50024L19.5 12.0002V20.2502Z" fill="#60646C"/>
</svg>
