<svg width="24" height="24" viewBox="0 0 24 24" fill="none" xmlns="http://www.w3.org/2000/svg">
<path d="M21 11.75C21 11.9489 20.921 12.1397 20.7803 12.2803C20.6397 12.421 20.4489 12.5 20.25 12.5H3.75C3.55109 12.5 3.36032 12.421 3.21967 12.2803C3.07902 12.1397 3 11.9489 3 11.75C3 11.5511 3.07902 11.3603 3.21967 11.2197C3.36032 11.079 3.55109 11 3.75 11H20.25C20.4489 11 20.6397 11.079 20.7803 11.2197C20.921 11.3603 21 11.5511 21 11.75ZM3.75 6.5H20.25C20.4489 6.5 20.6397 6.42098 20.7803 6.28033C20.921 6.13968 21 5.94891 21 5.75C21 5.55109 20.921 5.36032 20.7803 5.21967C20.6397 5.07902 20.4489 5 20.25 5H3.75C3.55109 5 3.36032 5.07902 3.21967 5.21967C3.07902 5.36032 3 5.55109 3 5.75C3 5.94891 3.07902 6.13968 3.21967 6.28033C3.36032 6.42098 3.55109 6.5 3.75 6.5ZM20.25 17H3.75C3.55109 17 3.36032 17.079 3.21967 17.2197C3.07902 17.3603 3 17.5511 3 17.75C3 17.9489 3.07902 18.1397 3.21967 18.2803C3.36032 18.421 3.55109 18.5 3.75 18.5H20.25C20.4489 18.5 20.6397 18.421 20.7803 18.2803C20.921 18.1397 21 17.9489 21 17.75C21 17.5511 20.921 17.3603 20.7803 17.2197C20.6397 17.079 20.4489 17 20.25 17Z" fill="#60646C"/>
</svg>
