<svg width="24" height="24" viewBox="0 0 24 24" fill="none" xmlns="http://www.w3.org/2000/svg">
<path d="M15.3751 6.74995C14.7333 6.74956 14.0944 6.83565 13.4757 7.00589C13.2314 6.60736 12.9347 6.24347 12.5935 5.92401L13.4851 4.65182C13.5416 4.57112 13.5816 4.48008 13.603 4.3839C13.6243 4.28771 13.6265 4.18827 13.6094 4.09125C13.5922 3.99423 13.5562 3.90152 13.5033 3.81843C13.4503 3.73534 13.3816 3.66349 13.3009 3.60698C13.2201 3.55047 13.1291 3.51041 13.0329 3.48909C12.9367 3.46776 12.8373 3.46559 12.7403 3.4827C12.6433 3.4998 12.5505 3.53585 12.4675 3.58878C12.3844 3.64172 12.3125 3.7105 12.256 3.7912L11.3644 5.06245C10.6313 4.69227 9.82138 4.49959 9.00007 4.49995C8.94476 4.49995 8.89132 4.49995 8.83694 4.49995L8.56601 2.97276C8.55179 2.87325 8.51771 2.77761 8.4658 2.69154C8.41388 2.60546 8.3452 2.53069 8.26382 2.47168C8.18244 2.41267 8.09003 2.37063 7.99208 2.34804C7.89413 2.32545 7.79264 2.32278 7.69364 2.34019C7.59464 2.35761 7.50014 2.39474 7.41578 2.44939C7.33141 2.50405 7.25889 2.5751 7.20253 2.65833C7.14617 2.74157 7.10712 2.83528 7.08769 2.93391C7.06826 3.03253 7.06886 3.13406 7.08944 3.23245L7.35944 4.76432C6.52765 5.03944 5.77776 5.51799 5.17788 6.15651L3.90101 5.26307C3.82037 5.20518 3.72904 5.16386 3.63231 5.14153C3.53559 5.11919 3.43539 5.11628 3.33753 5.13297C3.23967 5.14965 3.1461 5.18559 3.06224 5.23871C2.97838 5.29184 2.9059 5.36108 2.849 5.44242C2.7921 5.52377 2.75192 5.6156 2.73078 5.71259C2.70964 5.80959 2.70797 5.90981 2.72586 6.00746C2.74375 6.1051 2.78084 6.19823 2.83499 6.28142C2.88915 6.36462 2.95928 6.43625 3.04132 6.49214L4.31257 7.38464C3.94108 8.11765 3.74832 8.92817 3.75007 9.74995C3.75007 9.80339 3.75007 9.85776 3.75007 9.9112L2.22288 10.1812C2.03803 10.2136 1.87204 10.3141 1.75767 10.4629C1.6433 10.6117 1.58887 10.7979 1.60511 10.9849C1.62136 11.1718 1.70711 11.3459 1.84543 11.4727C1.98375 11.5996 2.16459 11.6699 2.35226 11.6699C2.39593 11.6699 2.43953 11.6661 2.48257 11.6587L4.01257 11.3887C4.147 11.798 4.33152 12.1891 4.56194 12.5531C3.84456 13.2194 3.34444 14.0863 3.12672 15.0409C2.90901 15.9955 2.98377 16.9935 3.34129 17.905C3.69881 18.8165 4.32251 19.5993 5.13117 20.1513C5.93982 20.7033 6.89596 20.999 7.87507 20.9999H15.3751C17.2647 20.9999 19.077 20.2493 20.4132 18.9131C21.7494 17.5769 22.5001 15.7646 22.5001 13.8749C22.5001 11.9853 21.7494 10.173 20.4132 8.83681C19.077 7.50062 17.2647 6.74995 15.3751 6.74995ZM8.71132 11.3212C7.72539 11.151 6.71098 11.2875 5.80507 11.7121C5.30378 10.8842 5.14205 9.89441 5.35372 8.94993C5.56538 8.00545 6.13403 7.17939 6.94074 6.64453C7.74744 6.10967 8.72971 5.90745 9.68209 6.08016C10.6345 6.25287 11.4832 6.78713 12.0507 7.5712C10.5208 8.37633 9.33442 9.70856 8.71132 11.3212Z" fill="#3F7FC0"/>
</svg>
