<svg width="24" height="24" viewBox="0 0 24 24" fill="none" xmlns="http://www.w3.org/2000/svg">
<path d="M19.75 5.74772C18.7287 5.74781 17.7163 5.93858 16.765 6.31022C15.4225 3.52585 12.7103 2.1421 12.5866 2.07929C12.4824 2.02715 12.3675 2 12.2509 2C12.1344 2 12.0195 2.02715 11.9153 2.07929C11.7906 2.13929 9.07844 3.52304 7.73594 6.31022C6.78433 5.93846 5.77165 5.74769 4.75 5.74772C4.55109 5.74772 4.36032 5.82674 4.21967 5.96739C4.07902 6.10805 4 6.29881 4 6.49772V13.9977C4.00245 15.9817 4.71878 17.8985 6.01807 19.3978C7.31736 20.8971 9.11281 21.8788 11.0763 22.1633C11.1294 22.1703 11.1835 22.1658 11.2348 22.1501C11.286 22.1344 11.3334 22.1079 11.3735 22.0724C11.4137 22.0368 11.4458 21.9931 11.4676 21.9441C11.4894 21.8951 11.5005 21.842 11.5 21.7883V17.023C11.4976 16.8295 11.5685 16.6423 11.6983 16.4989C11.8282 16.3554 12.0075 16.2664 12.2003 16.2496C12.3029 16.2428 12.4058 16.2571 12.5026 16.2918C12.5994 16.3264 12.6881 16.3806 12.7631 16.4509C12.8381 16.5212 12.8978 16.6062 12.9385 16.7006C12.9793 16.795 13.0002 16.8968 13 16.9996V21.794C12.9995 21.8476 13.0106 21.9007 13.0324 21.9497C13.0542 21.9987 13.0863 22.0424 13.1265 22.078C13.1666 22.1135 13.214 22.14 13.2652 22.1557C13.3165 22.1714 13.3706 22.1759 13.4237 22.169C15.3881 21.8843 17.1844 20.9018 18.4838 19.4013C19.7832 17.9008 20.4989 15.9826 20.5 13.9977V6.49772C20.5 6.29881 20.421 6.10805 20.2803 5.96739C20.1397 5.82674 19.9489 5.74772 19.75 5.74772ZM11.5 14.5096C10.8122 13.5293 9.91922 12.7104 8.88309 12.11C7.84697 11.5095 6.69254 11.1418 5.5 11.0324V7.28897C7.14935 7.47545 8.67243 8.26228 9.77895 9.49951C10.8855 10.7367 11.4981 12.3379 11.5 13.9977V14.5096ZM12.25 10.5627C11.5673 9.08197 10.464 7.83485 9.0775 6.97679C9.94094 5.17585 11.5525 4.0396 12.25 3.61116C12.9484 4.04054 14.5591 5.17679 15.4225 6.97679C14.036 7.83485 12.9327 9.08197 12.25 10.5627ZM19 11.0315C17.8075 11.1409 16.653 11.5086 15.6169 12.109C14.5808 12.7095 13.6878 13.5283 13 14.5087V13.9977C13.0019 12.3379 13.6145 10.7367 14.721 9.49951C15.8276 8.26228 17.3506 7.47545 19 7.28897V11.0315Z" fill="#3F7FC0"/>
</svg>
