<svg width="24" height="24" viewBox="0 0 24 24" fill="none" xmlns="http://www.w3.org/2000/svg">
<path d="M11.75 2C9.82164 2 7.93657 2.57183 6.33319 3.64317C4.72982 4.71451 3.48013 6.23726 2.74218 8.01884C2.00422 9.80042 1.81114 11.7608 2.18735 13.6521C2.56355 15.5434 3.49215 17.2807 4.85571 18.6443C6.21928 20.0079 7.95656 20.9365 9.84787 21.3127C11.7392 21.6889 13.6996 21.4958 15.4812 20.7578C17.2627 20.0199 18.7855 18.7702 19.8568 17.1668C20.9282 15.5634 21.5 13.6784 21.5 11.75C21.4973 9.16498 20.4692 6.68661 18.6413 4.85872C16.8134 3.03084 14.335 2.00273 11.75 2ZM11.375 6.5C11.5975 6.5 11.815 6.56598 12 6.6896C12.185 6.81321 12.3292 6.98891 12.4144 7.19448C12.4995 7.40005 12.5218 7.62625 12.4784 7.84448C12.435 8.06271 12.3278 8.26316 12.1705 8.4205C12.0132 8.57783 11.8127 8.68498 11.5945 8.72838C11.3763 8.77179 11.1501 8.74951 10.9445 8.66436C10.7389 8.57922 10.5632 8.43502 10.4396 8.25002C10.316 8.06501 10.25 7.8475 10.25 7.625C10.25 7.32663 10.3685 7.04048 10.5795 6.8295C10.7905 6.61853 11.0766 6.5 11.375 6.5ZM12.5 17C12.1022 17 11.7206 16.842 11.4393 16.5607C11.158 16.2794 11 15.8978 11 15.5V11.75C10.8011 11.75 10.6103 11.671 10.4697 11.5303C10.329 11.3897 10.25 11.1989 10.25 11C10.25 10.8011 10.329 10.6103 10.4697 10.4697C10.6103 10.329 10.8011 10.25 11 10.25C11.3978 10.25 11.7794 10.408 12.0607 10.6893C12.342 10.9706 12.5 11.3522 12.5 11.75V15.5C12.6989 15.5 12.8897 15.579 13.0303 15.7197C13.171 15.8603 13.25 16.0511 13.25 16.25C13.25 16.4489 13.171 16.6397 13.0303 16.7803C12.8897 16.921 12.6989 17 12.5 17Z" fill="#3F7FC0"/>
</svg>
