<svg width="24" height="24" viewBox="0 0 24 24" fill="none" xmlns="http://www.w3.org/2000/svg">
<path d="M20.9996 5.50174V14.0264C20.9996 18.3577 17.545 21.953 13.2184 22.0008C12.1683 22.015 11.1261 21.8182 10.1534 21.4222C9.18077 21.0262 8.29748 20.4391 7.5559 19.6955C5.51121 17.5327 3.20121 12.2517 3.20121 12.2517C3.0996 12.0759 3.03476 11.8812 3.01063 11.6796C2.98649 11.4779 3.00357 11.2734 3.06081 11.0786C3.11805 10.8837 3.21427 10.7025 3.34364 10.5459C3.473 10.3893 3.63282 10.2606 3.8134 10.1677C4.53152 9.79268 5.41652 10.0889 5.81965 10.7883L7.7884 14.2046C7.84315 14.3029 7.92577 14.3829 8.02585 14.4344C8.12593 14.486 8.23902 14.5068 8.3509 14.4942H8.36215C8.5423 14.4632 8.70548 14.369 8.82234 14.2284C8.9392 14.0878 9.00207 13.9102 8.99965 13.7274V4.00174C8.99941 3.79853 9.04047 3.59739 9.12032 3.41054C9.20018 3.22368 9.31717 3.05499 9.4642 2.91472C9.61122 2.77444 9.78521 2.6655 9.97562 2.59451C10.166 2.52352 10.3689 2.49196 10.5718 2.50174C11.379 2.53924 11.9996 3.23486 11.9996 4.04205V10.0017C11.9994 10.1046 12.0203 10.2063 12.0611 10.3007C12.1019 10.3951 12.1616 10.4801 12.2366 10.5504C12.3116 10.6208 12.4002 10.6749 12.497 10.7096C12.5939 10.7442 12.6967 10.7585 12.7993 10.7517C12.9922 10.7352 13.1716 10.6462 13.3016 10.5027C13.4315 10.3592 13.5023 10.1719 13.4996 9.9783V2.50174C13.4994 2.29853 13.5405 2.09739 13.6203 1.91054C13.7002 1.72368 13.8172 1.55499 13.9642 1.41472C14.1112 1.27444 14.2852 1.1655 14.4756 1.09451C14.666 1.02352 14.8689 0.991959 15.0718 1.00174C15.879 1.03924 16.4996 1.73486 16.4996 2.54205V10.7517C16.4994 10.8546 16.5203 10.9563 16.5611 11.0507C16.6019 11.1451 16.6616 11.2301 16.7366 11.3004C16.8116 11.3708 16.9002 11.4249 16.997 11.4596C17.0939 11.4942 17.1967 11.5085 17.2993 11.5017C17.4922 11.4852 17.6716 11.3962 17.8016 11.2527C17.9315 11.1092 18.0023 10.9219 17.9996 10.7283V5.54393C17.9996 4.73674 18.6203 4.04393 19.4275 4.00361C19.6303 3.99384 19.833 4.02535 20.0232 4.09622C20.2135 4.1671 20.3874 4.27587 20.5344 4.41595C20.6814 4.55602 20.7985 4.72448 20.8784 4.91112C20.9584 5.09776 20.9996 5.29869 20.9996 5.50174Z" fill="#3F7FC0"/>
</svg>
