<svg width="24" height="24" viewBox="0 0 24 24" fill="none" xmlns="http://www.w3.org/2000/svg">
<path d="M15.75 10.5C15.75 11.5384 15.4421 12.5534 14.8652 13.4168C14.2884 14.2801 13.4684 14.953 12.5091 15.3504C11.5498 15.7477 10.4942 15.8517 9.47581 15.6491C8.45741 15.4466 7.52194 14.9466 6.78772 14.2123C6.05349 13.4781 5.55348 12.5426 5.35091 11.5242C5.14833 10.5058 5.2523 9.45024 5.64966 8.49093C6.04702 7.53162 6.71993 6.71168 7.58329 6.1348C8.44664 5.55792 9.46168 5.25002 10.5 5.25002C11.8924 5.25002 13.2278 5.80314 14.2123 6.78771C15.1969 7.77227 15.75 9.10763 15.75 10.5ZM21.5307 21.5306C21.461 21.6004 21.3783 21.6557 21.2872 21.6934C21.1962 21.7312 21.0986 21.7506 21 21.7506C20.9015 21.7506 20.8039 21.7312 20.7128 21.6934C20.6218 21.6557 20.5391 21.6004 20.4694 21.5306L15.7763 16.8366C14.1442 18.1944 12.0515 18.8707 9.93346 18.7249C7.81543 18.5791 5.83514 17.6224 4.40449 16.0538C2.97384 14.4852 2.20297 12.4254 2.25222 10.303C2.30148 8.18051 3.16707 6.15873 4.66895 4.65818C6.17083 3.15763 8.19337 2.29382 10.3159 2.24644C12.4384 2.19906 14.4975 2.97175 16.0648 4.40379C17.6322 5.83582 18.5871 7.81696 18.731 9.93512C18.8749 12.0533 18.1968 14.1454 16.8375 15.7763L21.5307 20.4694C21.6004 20.539 21.6557 20.6218 21.6934 20.7128C21.7312 20.8039 21.7506 20.9015 21.7506 21C21.7506 21.0986 21.7312 21.1962 21.6934 21.2872C21.6557 21.3783 21.6004 21.461 21.5307 21.5306ZM10.5 17.25C11.8351 17.25 13.1401 16.8541 14.2501 16.1124C15.3602 15.3707 16.2253 14.3165 16.7362 13.0831C17.2471 11.8497 17.3808 10.4925 17.1203 9.18316C16.8599 7.87379 16.217 6.67105 15.273 5.72705C14.329 4.78304 13.1263 4.14017 11.8169 3.87972C10.5075 3.61927 9.15032 3.75294 7.91692 4.26383C6.68351 4.77472 5.62931 5.63989 4.88761 6.74992C4.14591 7.85995 3.75003 9.16499 3.75003 10.5C3.75201 12.2896 4.46381 14.0054 5.72925 15.2708C6.99469 16.5362 8.71043 17.248 10.5 17.25Z" fill="#3F7FC0"/>
</svg>
