<svg width="24" height="24" viewBox="0 0 24 24" fill="none" xmlns="http://www.w3.org/2000/svg">
<path d="M21 11.9993V20.9993C21 21.1982 20.921 21.389 20.7803 21.5296C20.6397 21.6703 20.4489 21.7493 20.25 21.7493H15C14.8011 21.7493 14.6103 21.6703 14.4697 21.5296C14.329 21.389 14.25 21.1982 14.25 20.9993V16.1243C14.25 16.0248 14.2105 15.9295 14.1402 15.8591C14.0698 15.7888 13.9745 15.7493 13.875 15.7493H10.125C10.0255 15.7493 9.93016 15.7888 9.85983 15.8591C9.78951 15.9295 9.75 16.0248 9.75 16.1243V20.9993C9.75 21.1982 9.67098 21.389 9.53033 21.5296C9.38968 21.6703 9.19891 21.7493 9 21.7493H3.75C3.55109 21.7493 3.36032 21.6703 3.21967 21.5296C3.07902 21.389 3 21.1982 3 20.9993V11.9993C3.00018 11.6016 3.15834 11.2202 3.43969 10.939L10.9397 3.43899C11.221 3.1579 11.6023 3 12 3C12.3977 3 12.779 3.1579 13.0603 3.43899L20.5603 10.939C20.8417 11.2202 20.9998 11.6016 21 11.9993Z" fill="#3F7FC0"/>
</svg>
