<svg width="24" height="24" viewBox="0 0 24 24" fill="none" xmlns="http://www.w3.org/2000/svg">
<path d="M15.3751 6.74995C14.7333 6.74956 14.0944 6.83565 13.4757 7.00589C13.2314 6.60736 12.9347 6.24347 12.5935 5.92401L13.4851 4.65182C13.5416 4.57112 13.5816 4.48008 13.603 4.3839C13.6243 4.28771 13.6265 4.18827 13.6094 4.09125C13.5922 3.99423 13.5562 3.90152 13.5033 3.81843C13.4503 3.73534 13.3816 3.66349 13.3009 3.60698C13.2201 3.55047 13.1291 3.51041 13.0329 3.48909C12.9367 3.46776 12.8373 3.46559 12.7403 3.4827C12.6433 3.4998 12.5505 3.53585 12.4675 3.58878C12.3844 3.64172 12.3125 3.7105 12.256 3.7912L11.3644 5.06245C10.6313 4.69227 9.82138 4.49959 9.00007 4.49995C8.94569 4.49995 8.89132 4.49995 8.83694 4.49995L8.56601 2.97276C8.55179 2.87325 8.51771 2.77761 8.4658 2.69154C8.41388 2.60546 8.3452 2.53069 8.26382 2.47168C8.18244 2.41267 8.09003 2.37063 7.99208 2.34804C7.89413 2.32545 7.79264 2.32278 7.69364 2.34019C7.59464 2.35761 7.50014 2.39474 7.41578 2.44939C7.33141 2.50405 7.25889 2.5751 7.20253 2.65833C7.14617 2.74157 7.10712 2.83528 7.08769 2.93391C7.06826 3.03253 7.06886 3.13406 7.08944 3.23245L7.35944 4.76432C6.52765 5.03944 5.77776 5.51799 5.17788 6.15651L3.90101 5.26307C3.82037 5.20518 3.72904 5.16386 3.63231 5.14153C3.53559 5.11919 3.43539 5.11628 3.33753 5.13297C3.23967 5.14965 3.1461 5.18559 3.06224 5.23871C2.97838 5.29184 2.9059 5.36108 2.849 5.44242C2.7921 5.52377 2.75192 5.6156 2.73078 5.71259C2.70964 5.80959 2.70797 5.90981 2.72586 6.00746C2.74375 6.1051 2.78084 6.19823 2.83499 6.28142C2.88915 6.36462 2.95928 6.43625 3.04132 6.49214L4.31257 7.38464C3.94108 8.11765 3.74832 8.92817 3.75007 9.74995C3.75007 9.80339 3.75007 9.85776 3.75007 9.9112L2.22288 10.1812C2.03803 10.2136 1.87204 10.3141 1.75767 10.4629C1.6433 10.6117 1.58887 10.7979 1.60511 10.9849C1.62136 11.1718 1.70711 11.3459 1.84543 11.4727C1.98375 11.5996 2.16459 11.6699 2.35226 11.6699C2.39593 11.6699 2.43953 11.6661 2.48257 11.6587L4.01257 11.3887C4.147 11.798 4.33152 12.1891 4.56194 12.5531C3.84456 13.2194 3.34444 14.0863 3.12672 15.0409C2.90901 15.9955 2.98377 16.9935 3.34129 17.905C3.69881 18.8165 4.32251 19.5993 5.13117 20.1513C5.93982 20.7033 6.89596 20.999 7.87507 20.9999H15.3751C17.2647 20.9999 19.077 20.2493 20.4132 18.9131C21.7494 17.5769 22.5001 15.7646 22.5001 13.8749C22.5001 11.9853 21.7494 10.173 20.4132 8.83681C19.077 7.50062 17.2647 6.74995 15.3751 6.74995ZM5.25007 9.74995C5.25052 8.95575 5.5031 8.1822 5.97142 7.54078C6.43974 6.89935 7.09961 6.42317 7.85594 6.18087C8.61228 5.93856 9.42601 5.94263 10.1799 6.19249C10.9337 6.44236 11.5888 6.92512 12.0507 7.5712C10.5208 8.37633 9.33442 9.70856 8.71132 11.3212C7.72539 11.151 6.71098 11.2875 5.80507 11.7121C5.44237 11.1219 5.25027 10.4427 5.25007 9.74995ZM15.3751 19.4999H7.87507C7.41347 19.4991 6.95695 19.4036 6.53373 19.2193C6.11052 19.035 5.72961 18.7658 5.41457 18.4284C5.09952 18.091 4.85703 17.6926 4.70209 17.2578C4.54714 16.823 4.48305 16.361 4.51376 15.9004C4.54447 15.4398 4.66933 14.9905 4.88063 14.5801C5.09192 14.1697 5.38516 13.807 5.74221 13.5144C6.09926 13.2218 6.51253 13.0056 6.95647 12.8791C7.4004 12.7526 7.86557 12.7186 8.32319 12.779C8.28851 13.0012 8.26413 13.2281 8.25101 13.4568C8.23957 13.6557 8.30762 13.851 8.44018 13.9998C8.57275 14.1485 8.75897 14.2385 8.95788 14.2499C9.15679 14.2614 9.3521 14.1933 9.50084 14.0608C9.64958 13.9282 9.73957 13.742 9.75101 13.5431C9.77205 13.169 9.8311 12.798 9.92726 12.4359C9.92726 12.4209 9.93569 12.4059 9.93851 12.3909C10.2142 11.3779 10.7676 10.4621 11.5362 9.74697C12.3048 9.03184 13.2581 8.54586 14.2883 8.34388C15.3186 8.14191 16.3848 8.23199 17.3665 8.60396C18.3483 8.97593 19.2065 9.61496 19.8442 10.4489C20.482 11.2829 20.8739 12.2785 20.9757 13.3234C21.0775 14.3683 20.8851 15.4209 20.4203 16.3622C19.9554 17.3036 19.2367 18.0962 18.3452 18.6507C17.4537 19.2051 16.4249 19.4993 15.3751 19.4999Z" fill="#60646C"/>
</svg>
