<svg width="24" height="24" viewBox="0 0 24 24" fill="none" xmlns="http://www.w3.org/2000/svg">
<path d="M13.9794 7.93096L5.57942 16.181C5.43914 16.3189 5.25025 16.3963 5.05348 16.3963C4.85671 16.3963 4.66782 16.3189 4.52754 16.181L0.927544 12.6457C0.857307 12.5766 0.801362 12.4944 0.762902 12.4037C0.724443 12.313 0.704223 12.2156 0.703396 12.1171C0.702569 12.0186 0.721151 11.9209 0.758082 11.8296C0.795014 11.7383 0.84957 11.6551 0.918637 11.5849C0.987705 11.5146 1.06993 11.4587 1.16062 11.4202C1.25131 11.3818 1.34868 11.3615 1.44718 11.3607C1.54569 11.3599 1.64339 11.3785 1.73471 11.4154C1.82603 11.4523 1.90918 11.5069 1.97942 11.576L5.05348 14.5947L12.9285 6.86034C13.0705 6.72085 13.262 6.64348 13.461 6.64523C13.5596 6.6461 13.657 6.66638 13.7477 6.70489C13.8384 6.74341 13.9207 6.79942 13.9897 6.86971C14.0588 6.94001 14.1133 7.02323 14.1502 7.1146C14.1872 7.20598 14.2057 7.30373 14.2048 7.40228C14.204 7.50083 14.1837 7.59824 14.1452 7.68895C14.1067 7.77966 14.0507 7.8619 13.9804 7.93096H13.9794ZM22.9888 6.86971C22.9198 6.79936 22.8375 6.74331 22.7468 6.70476C22.6561 6.66621 22.5587 6.64592 22.4601 6.64505C22.3615 6.64418 22.2638 6.66274 22.1724 6.69969C22.081 6.73663 21.9978 6.79122 21.9275 6.86034L14.0525 14.5947L12.2872 12.8603C12.1453 12.721 11.9537 12.6437 11.7548 12.6456C11.5559 12.6474 11.3658 12.7282 11.2264 12.8702C11.0871 13.0122 11.0098 13.2037 11.0117 13.4026C11.0135 13.6015 11.0943 13.7916 11.2363 13.931L13.5266 16.181C13.6669 16.3189 13.8558 16.3963 14.0525 16.3963C14.2493 16.3963 14.4382 16.3189 14.5785 16.181L22.9785 7.93096C23.0489 7.86199 23.105 7.77981 23.1437 7.68913C23.1823 7.59845 23.2027 7.50104 23.2036 7.40248C23.2046 7.30391 23.1861 7.20613 23.1492 7.11471C23.1124 7.0233 23.0579 6.94004 22.9888 6.86971Z" fill="#60646C"/>
</svg>
