<svg width="24" height="24" viewBox="0 0 24 24" fill="none" xmlns="http://www.w3.org/2000/svg">
<path d="M20.1929 15.2869C20.1362 15.4239 20.0401 15.5411 19.9168 15.6235C19.7934 15.7059 19.6484 15.7499 19.5001 15.75H4.5001C4.35168 15.7501 4.20656 15.7062 4.08312 15.6238C3.95967 15.5414 3.86345 15.4242 3.80664 15.2871C3.74982 15.15 3.73497 14.9991 3.76396 14.8535C3.79294 14.7079 3.86447 14.5742 3.96948 14.4694L11.4695 6.96935C11.5391 6.89962 11.6218 6.8443 11.7129 6.80656C11.8039 6.76882 11.9015 6.74939 12.0001 6.74939C12.0987 6.74939 12.1963 6.76882 12.2873 6.80656C12.3784 6.8443 12.4611 6.89962 12.5307 6.96935L20.0307 14.4694C20.1356 14.5743 20.207 14.708 20.2358 14.8535C20.2647 14.999 20.2498 15.1498 20.1929 15.2869Z" fill="#3F7FC0"/>
</svg>
