<svg width="24" height="24" viewBox="0 0 24 24" fill="none" xmlns="http://www.w3.org/2000/svg">
<path d="M16.0306 8.96937C16.1004 9.03903 16.1557 9.12175 16.1934 9.21279C16.2312 9.30384 16.2506 9.40144 16.2506 9.5C16.2506 9.59856 16.2312 9.69616 16.1934 9.78721C16.1557 9.87825 16.1004 9.96097 16.0306 10.0306L10.7806 15.2806C10.711 15.3504 10.6283 15.4057 10.5372 15.4434C10.4462 15.4812 10.3486 15.5006 10.25 15.5006C10.1514 15.5006 10.0538 15.4812 9.9628 15.4434C9.87175 15.4057 9.78903 15.3504 9.71938 15.2806L7.46938 13.0306C7.32865 12.8899 7.24959 12.699 7.24959 12.5C7.24959 12.301 7.32865 12.1101 7.46938 11.9694C7.61011 11.8286 7.80098 11.7496 8 11.7496C8.19903 11.7496 8.3899 11.8286 8.53063 11.9694L10.25 13.6897L14.9694 8.96937C15.039 8.89964 15.1218 8.84432 15.2128 8.80658C15.3038 8.76884 15.4014 8.74941 15.5 8.74941C15.5986 8.74941 15.6962 8.76884 15.7872 8.80658C15.8783 8.84432 15.961 8.89964 16.0306 8.96937ZM21.5 11.75C21.5 13.6784 20.9282 15.5634 19.8568 17.1668C18.7855 18.7702 17.2627 20.0199 15.4812 20.7578C13.6996 21.4958 11.7392 21.6889 9.84787 21.3127C7.95656 20.9365 6.21928 20.0079 4.85571 18.6443C3.49215 17.2807 2.56355 15.5434 2.18735 13.6521C1.81114 11.7608 2.00422 9.80042 2.74218 8.01884C3.48013 6.23726 4.72982 4.71451 6.33319 3.64317C7.93657 2.57183 9.82164 2 11.75 2C14.335 2.00273 16.8134 3.03084 18.6413 4.85872C20.4692 6.68661 21.4973 9.16498 21.5 11.75ZM20 11.75C20 10.1183 19.5161 8.52325 18.6096 7.16655C17.7031 5.80984 16.4146 4.75242 14.9071 4.12799C13.3997 3.50357 11.7409 3.34019 10.1405 3.65852C8.54017 3.97685 7.07016 4.76259 5.91637 5.91637C4.76259 7.07015 3.97685 8.54016 3.65853 10.1405C3.3402 11.7408 3.50358 13.3996 4.128 14.9071C4.75242 16.4146 5.80984 17.7031 7.16655 18.6096C8.52326 19.5161 10.1183 20 11.75 20C13.9373 19.9975 16.0343 19.1275 17.5809 17.5809C19.1275 16.0343 19.9975 13.9373 20 11.75Z" fill="#60646C"/>
</svg>
