<svg width="24" height="24" viewBox="0 0 24 24" fill="none" xmlns="http://www.w3.org/2000/svg">
<path d="M20.0307 9.53063L12.5307 17.0306C12.4611 17.1004 12.3784 17.1557 12.2873 17.1934C12.1963 17.2312 12.0987 17.2506 12.0001 17.2506C11.9015 17.2506 11.8039 17.2312 11.7129 17.1934C11.6218 17.1557 11.5391 17.1004 11.4695 17.0306L3.96948 9.53063C3.86447 9.42573 3.79294 9.29204 3.76396 9.14648C3.73497 9.00092 3.74982 8.85002 3.80664 8.71291C3.86345 8.57579 3.95967 8.45861 4.08312 8.37621C4.20656 8.29381 4.35168 8.24988 4.5001 8.25H19.5001C19.6485 8.24988 19.7936 8.29381 19.9171 8.37621C20.0405 8.45861 20.1368 8.57579 20.1936 8.71291C20.2504 8.85002 20.2652 9.00092 20.2362 9.14648C20.2073 9.29204 20.1357 9.42573 20.0307 9.53063Z" fill="#3F7FC0"/>
</svg>
