<svg width="24" height="24" viewBox="0 0 24 24" fill="none" xmlns="http://www.w3.org/2000/svg">
<path d="M20.25 9C20.25 9.19891 20.171 9.38968 20.0303 9.53033C19.8897 9.67098 19.6989 9.75 19.5 9.75C19.3011 9.75 19.1103 9.67098 18.9697 9.53033C18.829 9.38968 18.75 9.19891 18.75 9V4.81125L12.5316 11.0306C12.3908 11.1714 12.2 11.2504 12.0009 11.2504C11.8019 11.2504 11.611 11.1714 11.4703 11.0306C11.3296 10.8899 11.2505 10.699 11.2505 10.5C11.2505 10.301 11.3296 10.1101 11.4703 9.96937L17.6887 3.75H13.5C13.3011 3.75 13.1103 3.67098 12.9697 3.53033C12.829 3.38968 12.75 3.19891 12.75 3C12.75 2.80109 12.829 2.61032 12.9697 2.46967C13.1103 2.32902 13.3011 2.25 13.5 2.25H19.5C19.6989 2.25 19.8897 2.32902 20.0303 2.46967C20.171 2.61032 20.25 2.80109 20.25 3V9ZM16.5 11.25C16.3011 11.25 16.1103 11.329 15.9697 11.4697C15.829 11.6103 15.75 11.8011 15.75 12V18.75H3.75V6.75H10.5C10.6989 6.75 10.8897 6.67098 11.0303 6.53033C11.171 6.38968 11.25 6.19891 11.25 6C11.25 5.80109 11.171 5.61032 11.0303 5.46967C10.8897 5.32902 10.6989 5.25 10.5 5.25H3.75C3.35218 5.25 2.97064 5.40804 2.68934 5.68934C2.40804 5.97064 2.25 6.35218 2.25 6.75V18.75C2.25 19.1478 2.40804 19.5294 2.68934 19.8107C2.97064 20.092 3.35218 20.25 3.75 20.25H15.75C16.1478 20.25 16.5294 20.092 16.8107 19.8107C17.092 19.5294 17.25 19.1478 17.25 18.75V12C17.25 11.8011 17.171 11.6103 17.0303 11.4697C16.8897 11.329 16.6989 11.25 16.5 11.25Z" fill="#60646C"/>
</svg>
