<svg width="24" height="24" viewBox="0 0 24 24" fill="none" xmlns="http://www.w3.org/2000/svg">
<path d="M11.75 2C9.82164 2 7.93657 2.57183 6.33319 3.64317C4.72982 4.71451 3.48013 6.23726 2.74218 8.01884C2.00422 9.80042 1.81114 11.7608 2.18735 13.6521C2.56355 15.5434 3.49215 17.2807 4.85571 18.6443C6.21928 20.0079 7.95656 20.9365 9.84787 21.3127C11.7392 21.6889 13.6996 21.4958 15.4812 20.7578C17.2627 20.0199 18.7855 18.7702 19.8568 17.1668C20.9282 15.5634 21.5 13.6784 21.5 11.75C21.4973 9.16498 20.4692 6.68661 18.6413 4.85872C16.8134 3.03084 14.335 2.00273 11.75 2ZM11.75 20C10.1183 20 8.52326 19.5161 7.16655 18.6096C5.80984 17.7031 4.75242 16.4146 4.128 14.9071C3.50358 13.3996 3.3402 11.7408 3.65853 10.1405C3.97685 8.54016 4.76259 7.07015 5.91637 5.91637C7.07016 4.76259 8.54017 3.97685 10.1405 3.65852C11.7409 3.34019 13.3997 3.50357 14.9071 4.12799C16.4146 4.75242 17.7031 5.80984 18.6096 7.16655C19.5161 8.52325 20 10.1183 20 11.75C19.9975 13.9373 19.1275 16.0343 17.5809 17.5809C16.0343 19.1275 13.9373 19.9975 11.75 20ZM13.25 16.25C13.25 16.4489 13.171 16.6397 13.0303 16.7803C12.8897 16.921 12.6989 17 12.5 17C12.1022 17 11.7206 16.842 11.4393 16.5607C11.158 16.2794 11 15.8978 11 15.5V11.75C10.8011 11.75 10.6103 11.671 10.4697 11.5303C10.329 11.3897 10.25 11.1989 10.25 11C10.25 10.8011 10.329 10.6103 10.4697 10.4697C10.6103 10.329 10.8011 10.25 11 10.25C11.3978 10.25 11.7794 10.408 12.0607 10.6893C12.342 10.9706 12.5 11.3522 12.5 11.75V15.5C12.6989 15.5 12.8897 15.579 13.0303 15.7197C13.171 15.8603 13.25 16.0511 13.25 16.25ZM10.25 7.625C10.25 7.4025 10.316 7.18499 10.4396 6.99998C10.5632 6.81498 10.7389 6.67078 10.9445 6.58564C11.1501 6.50049 11.3763 6.47821 11.5945 6.52162C11.8127 6.56502 12.0132 6.67217 12.1705 6.8295C12.3278 6.98684 12.435 7.18729 12.4784 7.40552C12.5218 7.62375 12.4995 7.84995 12.4144 8.05552C12.3292 8.26109 12.185 8.43679 12 8.5604C11.815 8.68402 11.5975 8.75 11.375 8.75C11.0766 8.75 10.7905 8.63147 10.5795 8.4205C10.3685 8.20952 10.25 7.92337 10.25 7.625Z" fill="#60646C"/>
</svg>
