<svg width="24" height="24" viewBox="0 0 24 24" fill="none" xmlns="http://www.w3.org/2000/svg">
<path d="M5.625 14.5H4.125C3.92609 14.5 3.73532 14.579 3.59467 14.7197C3.45402 14.8603 3.375 15.0511 3.375 15.25V20.5C3.375 20.6989 3.45402 20.8897 3.59467 21.0303C3.73532 21.171 3.92609 21.25 4.125 21.25C4.32391 21.25 4.51468 21.171 4.65533 21.0303C4.79598 20.8897 4.875 20.6989 4.875 20.5V19.75H5.625C6.32119 19.75 6.98887 19.4734 7.48116 18.9812C7.97344 18.4889 8.25 17.8212 8.25 17.125C8.25 16.4288 7.97344 15.7611 7.48116 15.2688C6.98887 14.7766 6.32119 14.5 5.625 14.5ZM5.625 18.25H4.875V16H5.625C5.92337 16 6.20952 16.1185 6.4205 16.3295C6.63147 16.5405 6.75 16.8266 6.75 17.125C6.75 17.4234 6.63147 17.7095 6.4205 17.9205C6.20952 18.1315 5.92337 18.25 5.625 18.25ZM21 19.8316C21 20.0247 20.9254 20.2104 20.7919 20.35C20.5307 20.6311 20.2149 20.8559 19.8638 21.0107C19.5127 21.1655 19.1337 21.2469 18.75 21.25C17.0953 21.25 15.75 19.7359 15.75 17.875C15.75 16.0141 17.0953 14.5 18.75 14.5C19.3013 14.5019 19.8394 14.6687 20.295 14.9791C20.46 15.091 20.5737 15.2638 20.6113 15.4596C20.6488 15.6553 20.607 15.858 20.4952 16.023C20.3833 16.1879 20.2104 16.3017 20.0147 16.3392C19.8189 16.3768 19.6162 16.335 19.4513 16.2231C19.2455 16.0794 19.001 16.0016 18.75 16C17.9231 16 17.25 16.8438 17.25 17.875C17.25 18.9062 17.9231 19.75 18.75 19.75C19.0208 19.747 19.2835 19.6577 19.5 19.495V19C19.3011 19 19.1103 18.921 18.9697 18.7803C18.829 18.6397 18.75 18.4489 18.75 18.25C18.75 18.0511 18.829 17.8603 18.9697 17.7197C19.1103 17.579 19.3011 17.5 19.5 17.5H20.25C20.4489 17.5 20.6397 17.579 20.7803 17.7197C20.921 17.8603 21 18.0511 21 18.25V19.8316ZM14.625 15.25V20.5C14.625 20.6589 14.5745 20.8138 14.4809 20.9422C14.3872 21.0706 14.2551 21.1659 14.1038 21.2144C14.0298 21.2382 13.9526 21.2502 13.875 21.25C13.7556 21.25 13.638 21.2215 13.5318 21.1669C13.4257 21.1123 13.3341 21.0331 13.2647 20.9359L10.875 17.5938V20.5C10.875 20.6989 10.796 20.8897 10.6553 21.0303C10.5147 21.171 10.3239 21.25 10.125 21.25C9.92609 21.25 9.73532 21.171 9.59467 21.0303C9.45402 20.8897 9.375 20.6989 9.375 20.5V15.25C9.37499 15.0911 9.42546 14.9363 9.51912 14.8079C9.61278 14.6796 9.74479 14.5842 9.89611 14.5358C10.0474 14.4873 10.2103 14.4881 10.3611 14.5381C10.5119 14.5881 10.643 14.6848 10.7353 14.8141L13.125 18.1562V15.25C13.125 15.0511 13.204 14.8603 13.3447 14.7197C13.4853 14.579 13.6761 14.5 13.875 14.5C14.0739 14.5 14.2647 14.579 14.4053 14.7197C14.546 14.8603 14.625 15.0511 14.625 15.25ZM4.5 12.25C4.69891 12.25 4.88968 12.171 5.03033 12.0303C5.17098 11.8897 5.25 11.6989 5.25 11.5V4.75H13.5V9.25C13.5 9.44891 13.579 9.63968 13.7197 9.78033C13.8603 9.92098 14.0511 10 14.25 10H18.75V11.5C18.75 11.6989 18.829 11.8897 18.9697 12.0303C19.1103 12.171 19.3011 12.25 19.5 12.25C19.6989 12.25 19.8897 12.171 20.0303 12.0303C20.171 11.8897 20.25 11.6989 20.25 11.5V9.25C20.2501 9.15148 20.2307 9.05391 20.1931 8.96286C20.1555 8.87182 20.1003 8.78908 20.0306 8.71938L14.7806 3.46938C14.7109 3.39975 14.6282 3.34454 14.5371 3.3069C14.4461 3.26926 14.3485 3.24992 14.25 3.25H5.25C4.85218 3.25 4.47064 3.40804 4.18934 3.68934C3.90804 3.97064 3.75 4.35218 3.75 4.75V11.5C3.75 11.6989 3.82902 11.8897 3.96967 12.0303C4.11032 12.171 4.30109 12.25 4.5 12.25ZM15 5.81031L17.6897 8.5H15V5.81031Z" fill="#60646C"/>
</svg>
