<svg width="24" height="24" viewBox="0 0 24 24" fill="none" xmlns="http://www.w3.org/2000/svg">
<path d="M18.3794 4.001C17.9901 4.00045 17.6056 4.08727 17.2544 4.25506V3.626C17.2546 3.00036 17.0314 2.39521 16.6249 1.91959C16.2184 1.44397 15.6555 1.12917 15.0374 1.03192C14.4194 0.93466 13.7869 1.06134 13.254 1.38914C12.7211 1.71693 12.3229 2.22428 12.1309 2.81975C11.7312 2.60293 11.282 2.49367 10.8273 2.50269C10.3726 2.51172 9.92808 2.63871 9.53725 2.87122C9.14642 3.10373 8.82269 3.43379 8.5978 3.82906C8.37291 4.22433 8.25457 4.67124 8.25436 5.126V11.126L7.89624 10.5513C7.54839 9.95103 6.97705 9.51286 6.30709 9.33258C5.63713 9.15231 4.92304 9.24459 4.32093 9.58926C3.71881 9.93393 3.27762 10.503 3.09381 11.172C2.91 11.8409 2.99851 12.5555 3.33999 13.1594C4.83999 16.3254 6.05218 18.5707 7.43874 19.9741C8.83936 21.3954 10.4294 22.001 12.7544 22.001C14.9416 21.9985 17.0386 21.1285 18.5853 19.5819C20.1319 18.0353 21.0019 15.9383 21.0044 13.751V6.626C21.0044 5.92981 20.7278 5.26213 20.2355 4.76985C19.7432 4.27756 19.0756 4.001 18.3794 4.001ZM19.5044 13.751C19.5024 15.5406 18.7906 17.2563 17.5251 18.5218C16.2597 19.7872 14.544 20.499 12.7544 20.501C10.8437 20.501 9.6128 20.0435 8.50468 18.9213C7.26436 17.6641 6.12249 15.5323 4.68249 12.4929C4.67405 12.4743 4.66466 12.4561 4.65436 12.4385C4.50518 12.18 4.46478 11.8729 4.54205 11.5847C4.61932 11.2964 4.80793 11.0507 5.06639 10.9015C5.32486 10.7523 5.632 10.7119 5.92025 10.7892C6.20849 10.8664 6.45424 11.055 6.60343 11.3135C6.60724 11.321 6.61163 11.3282 6.61655 11.3351L8.36686 14.1476C8.45285 14.2863 8.58174 14.3932 8.73399 14.452C8.88624 14.5109 9.05353 14.5185 9.21047 14.4736C9.36741 14.4287 9.50543 14.3339 9.60359 14.2035C9.70175 14.0731 9.75469 13.9142 9.75436 13.751V5.126C9.75436 4.82763 9.87289 4.54149 10.0839 4.33051C10.2948 4.11953 10.581 4.001 10.8794 4.001C11.1777 4.001 11.4639 4.11953 11.6749 4.33051C11.8858 4.54149 12.0044 4.82763 12.0044 5.126V10.751C12.0044 10.9499 12.0834 11.1407 12.224 11.2813C12.3647 11.422 12.5555 11.501 12.7544 11.501C12.9533 11.501 13.144 11.422 13.2847 11.2813C13.4253 11.1407 13.5044 10.9499 13.5044 10.751V3.626C13.5044 3.32763 13.6229 3.04149 13.8339 2.83051C14.0448 2.61953 14.331 2.501 14.6294 2.501C14.9277 2.501 15.2139 2.61953 15.4249 2.83051C15.6358 3.04149 15.7544 3.32763 15.7544 3.626V10.751C15.7544 10.9499 15.8334 11.1407 15.974 11.2813C16.1147 11.422 16.3055 11.501 16.5044 11.501C16.7033 11.501 16.894 11.422 17.0347 11.2813C17.1753 11.1407 17.2544 10.9499 17.2544 10.751V6.626C17.2544 6.32763 17.3729 6.04149 17.5839 5.83051C17.7948 5.61953 18.081 5.501 18.3794 5.501C18.6777 5.501 18.9639 5.61953 19.1749 5.83051C19.3858 6.04149 19.5044 6.32763 19.5044 6.626V13.751Z" fill="#60646C"/>
</svg>
