<svg width="24" height="24" viewBox="0 0 24 24" fill="none" xmlns="http://www.w3.org/2000/svg">
<path d="M17.25 6V19.5C17.25 19.6989 17.171 19.8897 17.0303 20.0303C16.8897 20.171 16.6989 20.25 16.5 20.25H3C2.80109 20.25 2.61032 20.171 2.46967 20.0303C2.32902 19.8897 2.25 19.6989 2.25 19.5V6C2.25 5.80109 2.32902 5.61032 2.46967 5.46967C2.61032 5.32902 2.80109 5.25 3 5.25H16.5C16.6989 5.25 16.8897 5.32902 17.0303 5.46967C17.171 5.61032 17.25 5.80109 17.25 6ZM19.5 2.25H6C5.80109 2.25 5.61032 2.32902 5.46967 2.46967C5.32902 2.61032 5.25 2.80109 5.25 3C5.25 3.19891 5.32902 3.38968 5.46967 3.53033C5.61032 3.67098 5.80109 3.75 6 3.75H18.75V16.5C18.75 16.6989 18.829 16.8897 18.9697 17.0303C19.1103 17.171 19.3011 17.25 19.5 17.25C19.6989 17.25 19.8897 17.171 20.0303 17.0303C20.171 16.8897 20.25 16.6989 20.25 16.5V3C20.25 2.80109 20.171 2.61032 20.0303 2.46967C19.8897 2.32902 19.6989 2.25 19.5 2.25Z" fill="#3F7FC0"/>
</svg>
