<svg width="24" height="24" viewBox="0 0 24 24" fill="none" xmlns="http://www.w3.org/2000/svg">
<path d="M21 13.5V19.5C21 19.6989 20.921 19.8897 20.7803 20.0303C20.6397 20.171 20.4489 20.25 20.25 20.25H3.75C3.55109 20.25 3.36032 20.171 3.21967 20.0303C3.07902 19.8897 3 19.6989 3 19.5V13.5C3 13.3011 3.07902 13.1103 3.21967 12.9697C3.36032 12.829 3.55109 12.75 3.75 12.75C3.94891 12.75 4.13968 12.829 4.28033 12.9697C4.42098 13.1103 4.5 13.3011 4.5 13.5V18.75H19.5V13.5C19.5 13.3011 19.579 13.1103 19.7197 12.9697C19.8603 12.829 20.0511 12.75 20.25 12.75C20.4489 12.75 20.6397 12.829 20.7803 12.9697C20.921 13.1103 21 13.3011 21 13.5ZM11.4694 14.0306C11.539 14.1004 11.6217 14.1557 11.7128 14.1934C11.8038 14.2312 11.9014 14.2506 12 14.2506C12.0986 14.2506 12.1962 14.2312 12.2872 14.1934C12.3783 14.1557 12.461 14.1004 12.5306 14.0306L16.2806 10.2806C16.3856 10.1757 16.4572 10.042 16.4861 9.89648C16.5151 9.75092 16.5003 9.60002 16.4435 9.46291C16.3867 9.32579 16.2904 9.20861 16.167 9.12621C16.0435 9.04381 15.8984 8.99988 15.75 9H12.75V3C12.75 2.80109 12.671 2.61032 12.5303 2.46967C12.3897 2.32902 12.1989 2.25 12 2.25C11.8011 2.25 11.6103 2.32902 11.4697 2.46967C11.329 2.61032 11.25 2.80109 11.25 3V9H8.25C8.10158 8.99988 7.95646 9.04381 7.83301 9.12621C7.70957 9.20861 7.61335 9.32579 7.55653 9.46291C7.49972 9.60002 7.48487 9.75092 7.51385 9.89648C7.54284 10.042 7.61437 10.1757 7.71937 10.2806L11.4694 14.0306Z" fill="#3F7FC0"/>
</svg>
