<svg width="24" height="24" viewBox="0 0 24 24" fill="none" xmlns="http://www.w3.org/2000/svg">
<path d="M4.5 17.625C4.5 18.6562 5.17313 19.5 6 19.5C6.18098 19.4959 6.35925 19.4551 6.52396 19.38C6.68867 19.3049 6.83638 19.1971 6.95813 19.0631C7.0963 18.9224 7.28436 18.8417 7.48157 18.8387C7.67878 18.8356 7.86926 18.9103 8.01178 19.0466C8.15429 19.183 8.23736 19.37 8.24299 19.5671C8.24862 19.7643 8.17637 19.9557 8.04187 20.1C7.78073 20.3811 7.46492 20.6059 7.11381 20.7607C6.7627 20.9155 6.38369 20.9969 6 21C4.34531 21 3 19.4859 3 17.625C3 15.7641 4.34531 14.25 6 14.25C6.38369 14.2531 6.7627 14.3345 7.11381 14.4893C7.46492 14.6441 7.78073 14.8689 8.04187 15.15C8.17637 15.2943 8.24862 15.4857 8.24299 15.6829C8.23736 15.88 8.15429 16.067 8.01178 16.2033C7.86926 16.3397 7.67878 16.4144 7.48157 16.4113C7.28436 16.4083 7.0963 16.3276 6.95813 16.1869C6.83638 16.0529 6.68867 15.9451 6.52396 15.87C6.35925 15.7949 6.18098 15.7541 6 15.75C5.17313 15.75 4.5 16.5937 4.5 17.625ZM11.9625 16.8103C11.5875 16.7016 11.1994 16.59 10.9828 16.4503C10.8656 16.3744 10.8675 16.3566 10.8778 16.2722C10.8794 16.2041 10.8973 16.1373 10.9299 16.0775C10.9625 16.0176 11.0089 15.9664 11.0653 15.9281C11.4966 15.6356 12.5034 15.7659 12.9234 15.8756C13.1159 15.9272 13.3209 15.9002 13.4935 15.8006C13.6661 15.701 13.792 15.537 13.8436 15.3445C13.8952 15.1521 13.8682 14.947 13.7686 14.7745C13.669 14.6019 13.5049 14.476 13.3125 14.4244C13.1138 14.3728 11.3438 13.935 10.2338 14.6831C9.99902 14.8407 9.80178 15.0479 9.65597 15.2901C9.51017 15.5322 9.41937 15.8035 9.39 16.0847C9.2025 17.5734 10.6697 17.9981 11.5463 18.2512C12.6769 18.5784 12.7762 18.7125 12.7444 18.9628C12.7153 19.1887 12.6263 19.2759 12.5438 19.3312C12.1125 19.6181 11.1216 19.4775 10.7109 19.365C10.519 19.3114 10.3136 19.3363 10.14 19.4341C9.96638 19.532 9.83874 19.6948 9.78516 19.8867C9.73157 20.0787 9.75644 20.284 9.85428 20.4577C9.95212 20.6313 10.1149 20.7589 10.3069 20.8125C10.7719 20.9343 11.2503 20.9973 11.7309 21C12.2766 21 12.8841 20.9062 13.3706 20.5819C13.6108 20.4223 13.8126 20.2115 13.9616 19.9646C14.1105 19.7177 14.203 19.4409 14.2322 19.1541C14.4375 17.5312 12.8897 17.0784 11.9625 16.8103ZM19.7522 14.2941C19.6594 14.2609 19.561 14.2462 19.4626 14.2511C19.3642 14.2559 19.2677 14.2801 19.1786 14.3222C19.0896 14.3644 19.0097 14.4236 18.9435 14.4967C18.8774 14.5697 18.8263 14.655 18.7931 14.7478L17.625 18.0197L16.4559 14.7478C16.3891 14.5605 16.2505 14.4074 16.0707 14.3222C15.8909 14.237 15.6847 14.2267 15.4973 14.2936C15.31 14.3605 15.1569 14.499 15.0717 14.6788C14.9865 14.8586 14.9762 15.0648 15.0431 15.2522L16.9181 20.5022C16.9701 20.6479 17.0659 20.774 17.1924 20.8632C17.3188 20.9524 17.4698 21.0002 17.6245 21.0002C17.7793 21.0002 17.9302 20.9524 18.0567 20.8632C18.1832 20.774 18.279 20.6479 18.3309 20.5022L20.2059 15.2522C20.2727 15.065 20.2624 14.8589 20.1774 14.6792C20.0923 14.4996 19.9394 14.361 19.7522 14.2941ZM20.25 9V11.25C20.25 11.4489 20.171 11.6397 20.0303 11.7803C19.8897 11.921 19.6989 12 19.5 12C19.3011 12 19.1103 11.921 18.9697 11.7803C18.829 11.6397 18.75 11.4489 18.75 11.25V9.75H14.25C14.0511 9.75 13.8603 9.67098 13.7197 9.53033C13.579 9.38968 13.5 9.19891 13.5 9V4.5H5.25V11.25C5.25 11.4489 5.17098 11.6397 5.03033 11.7803C4.88968 11.921 4.69891 12 4.5 12C4.30109 12 4.11032 11.921 3.96967 11.7803C3.82902 11.6397 3.75 11.4489 3.75 11.25V4.5C3.75 4.10218 3.90804 3.72064 4.18934 3.43934C4.47064 3.15804 4.85218 3 5.25 3H14.25C14.3485 2.99992 14.4461 3.01926 14.5371 3.0569C14.6282 3.09454 14.7109 3.14975 14.7806 3.21938L20.0306 8.46937C20.1003 8.53908 20.1555 8.62182 20.1931 8.71286C20.2307 8.80391 20.2501 8.90148 20.25 9ZM17.6897 8.25L15 5.56031V8.25H17.6897Z" fill="#60646C"/>
</svg>
