<svg width="24" height="24" viewBox="0 0 24 24" fill="none" xmlns="http://www.w3.org/2000/svg">
<path d="M10.2806 13.7194C10.3504 13.789 10.4057 13.8717 10.4434 13.9628C10.4812 14.0538 10.5006 14.1514 10.5006 14.25C10.5006 14.3486 10.4812 14.4462 10.4434 14.5372C10.4057 14.6283 10.3504 14.711 10.2806 14.7806L7.81031 17.25L9.53063 18.9694C9.63563 19.0743 9.70716 19.208 9.73615 19.3535C9.76514 19.4991 9.75028 19.65 9.69347 19.7871C9.63665 19.9242 9.54043 20.0414 9.41699 20.1238C9.29354 20.2062 9.14842 20.2501 9 20.25H4.5C4.30109 20.25 4.11032 20.171 3.96967 20.0303C3.82902 19.8897 3.75 19.6989 3.75 19.5V15C3.74988 14.8516 3.79381 14.7065 3.87621 14.583C3.95861 14.4596 4.07579 14.3633 4.21291 14.3065C4.35002 14.2497 4.50092 14.2349 4.64648 14.2639C4.79204 14.2928 4.92573 14.3644 5.03063 14.4694L6.75 16.1897L9.21938 13.7194C9.28903 13.6496 9.37175 13.5943 9.4628 13.5566C9.55384 13.5188 9.65144 13.4994 9.75 13.4994C9.84856 13.4994 9.94616 13.5188 10.0372 13.5566C10.1283 13.5943 10.211 13.6496 10.2806 13.7194ZM7.81031 6.75L9.53063 5.03063C9.63563 4.92573 9.70716 4.79204 9.73615 4.64648C9.76514 4.50092 9.75028 4.35002 9.69347 4.21291C9.63665 4.07579 9.54043 3.95861 9.41699 3.87621C9.29354 3.79381 9.14842 3.74988 9 3.75H4.5C4.30109 3.75 4.11032 3.82902 3.96967 3.96967C3.82902 4.11032 3.75 4.30109 3.75 4.5V9C3.74988 9.14842 3.79381 9.29354 3.87621 9.41699C3.95861 9.54043 4.07579 9.63665 4.21291 9.69347C4.35002 9.75028 4.50092 9.76514 4.64648 9.73615C4.79204 9.70716 4.92573 9.63563 5.03063 9.53063L6.75 7.81031L9.21938 10.2806C9.36011 10.4214 9.55098 10.5004 9.75 10.5004C9.94902 10.5004 10.1399 10.4214 10.2806 10.2806C10.4214 10.1399 10.5004 9.94902 10.5004 9.75C10.5004 9.55098 10.4214 9.36011 10.2806 9.21938L7.81031 6.75ZM19.5 3.75H15C14.8516 3.74988 14.7065 3.79381 14.583 3.87621C14.4596 3.95861 14.3633 4.07579 14.3065 4.21291C14.2497 4.35002 14.2349 4.50092 14.2639 4.64648C14.2928 4.79204 14.3644 4.92573 14.4694 5.03063L16.1897 6.75L13.7194 9.21938C13.5786 9.36011 13.4996 9.55098 13.4996 9.75C13.4996 9.94902 13.5786 10.1399 13.7194 10.2806C13.8601 10.4214 14.051 10.5004 14.25 10.5004C14.449 10.5004 14.6399 10.4214 14.7806 10.2806L17.25 7.81031L18.9694 9.53063C19.0743 9.63563 19.208 9.70716 19.3535 9.73615C19.4991 9.76514 19.65 9.75028 19.7871 9.69347C19.9242 9.63665 20.0414 9.54043 20.1238 9.41699C20.2062 9.29354 20.2501 9.14842 20.25 9V4.5C20.25 4.30109 20.171 4.11032 20.0303 3.96967C19.8897 3.82902 19.6989 3.75 19.5 3.75ZM19.7869 14.3072C19.6498 14.2503 19.499 14.2354 19.3535 14.2643C19.208 14.2931 19.0743 14.3645 18.9694 14.4694L17.25 16.1897L14.7806 13.7194C14.6399 13.5786 14.449 13.4996 14.25 13.4996C14.051 13.4996 13.8601 13.5786 13.7194 13.7194C13.5786 13.8601 13.4996 14.051 13.4996 14.25C13.4996 14.449 13.5786 14.6399 13.7194 14.7806L16.1897 17.25L14.4694 18.9694C14.3644 19.0743 14.2928 19.208 14.2639 19.3535C14.2349 19.4991 14.2497 19.65 14.3065 19.7871C14.3633 19.9242 14.4596 20.0414 14.583 20.1238C14.7065 20.2062 14.8516 20.2501 15 20.25H19.5C19.6989 20.25 19.8897 20.171 20.0303 20.0303C20.171 19.8897 20.25 19.6989 20.25 19.5V15C20.25 14.8517 20.206 14.7067 20.1235 14.5834C20.0411 14.46 19.9239 14.3639 19.7869 14.3072Z" fill="#3F7FC0"/>
</svg>
