<svg width="24" height="24" viewBox="0 0 24 24" fill="none" xmlns="http://www.w3.org/2000/svg">
<path d="M19.75 5.74679C18.7283 5.74678 17.7157 5.93755 16.7641 6.30929C15.4216 3.52491 12.7094 2.14116 12.5856 2.07929C12.4814 2.02715 12.3665 2 12.25 2C12.1335 2 12.0186 2.02715 11.9144 2.07929C11.7897 2.14116 9.07844 3.52491 7.73594 6.30929C6.78432 5.93755 5.77165 5.74678 4.75 5.74679C4.55109 5.74679 4.36032 5.82581 4.21967 5.96646C4.07902 6.10711 4 6.29787 4 6.49679V13.9968C4 16.1848 4.86919 18.2832 6.41637 19.8304C7.96354 21.3776 10.062 22.2468 12.25 22.2468C14.438 22.2468 16.5365 21.3776 18.0836 19.8304C19.6308 18.2832 20.5 16.1848 20.5 13.9968V6.49679C20.5 6.29787 20.421 6.10711 20.2803 5.96646C20.1397 5.82581 19.9489 5.74679 19.75 5.74679ZM11.5 20.7055C9.85065 20.5191 8.32757 19.7322 7.22105 18.495C6.11452 17.2578 5.50192 15.6566 5.5 13.9968V12.538C7.14935 12.7245 8.67243 13.5113 9.77895 14.7486C10.8855 15.9858 11.4981 17.5869 11.5 19.2468V20.7055ZM11.5 14.5087C10.8122 13.5283 9.91922 12.7095 8.88309 12.109C7.84697 11.5086 6.69254 11.1409 5.5 11.0315V7.28804C7.14935 7.47451 8.67243 8.26134 9.77895 9.49858C10.8855 10.7358 11.4981 12.3369 11.5 13.9968V14.5087ZM9.07656 6.97585C9.94094 5.17491 11.5525 4.03866 12.25 3.61022C12.9475 4.0396 14.5591 5.17585 15.4225 6.97585C14.036 7.83391 12.9327 9.08103 12.25 10.5618C11.5673 9.08078 10.4636 7.8336 9.07656 6.97585ZM19 13.9968C18.9981 15.6566 18.3855 17.2578 17.279 18.495C16.1724 19.7322 14.6494 20.5191 13 20.7055V19.2468C13.0019 17.5869 13.6145 15.9858 14.721 14.7486C15.8276 13.5113 17.3506 12.7245 19 12.538V13.9968ZM19 11.0315C17.8075 11.1409 16.653 11.5086 15.6169 12.109C14.5808 12.7095 13.6878 13.5283 13 14.5087V13.9968C13.0019 12.3369 13.6145 10.7358 14.721 9.49858C15.8276 8.26134 17.3506 7.47451 19 7.28804V11.0315Z" fill="#60646C"/>
</svg>
